<svg xmlns="http://www.w3.org/2000/svg" viewBox="0 0 1308 328" fill="currentColor" role="img" aria-label="Heriot-Watt University Edinburgh Business School"><g><g><path d="m691.7 25.2h45.7v8.6h-35.6v22.6h33.8v8.5h-33.8v24.2h36.4v8.8h-46.5z"></path><path fill-rule="evenodd" d="m754.5 25.2h21c9.8 0 21.3 0 29.4 9.5 6.4 7.5 8.9 17.5 8.9 27.5 0 15.7-6.5 25.4-12.1 29.8-7.1 5.9-16.1 5.9-26.8 5.9h-20.4zm10.1 64.5h9.8c7 0 14.2-0.4 19.1-4 9.2-7 9.5-18.9 9.5-23.1 0-2.7-0.2-15.1-7-22.7-4.6-5.1-10.5-6.3-19.3-6.3h-12.1z"></path><path d="m827.2 25.2h10.1v72.7h-10.1z"></path><path d="m855.9 25.2h14l35.8 60.1v-60.1h9.3v72.7h-12.9l-37-61.7v61.7h-9.2z"></path><path fill-rule="evenodd" d="m934.3 25.2h26c8.9 0 13.8 0.9 18.3 5.3 3.2 3.1 5.2 7.3 5.2 13 0 12-8.8 15.1-12.3 16.5 4.2 1.2 14.5 4.2 14.5 18.1 0 9.9-6.3 14.9-8.8 16.5-5 3.3-10.6 3.3-16.4 3.3h-26.5zm9.8 30.8h14.1c3.4 0 15.1 0 15.1-11.5 0-11-9.2-11-14.7-11h-14.5zm0 33.8h17.2c8 0 14.3-4.2 14.3-12.5 0-7.3-5-12.6-13.9-12.6h-17.6z"></path><path d="m1011.4 25.2v45c0 7.8 1.7 11 3.2 13.1 4.6 6.1 11.6 7.2 16.6 7.2 19.7 0 19.7-15.4 19.7-20.7v-44.6h9.8v44.8c0 4-0.1 12.1-6 19.4-7.1 8.9-18.2 10-23.5 10-6.8 0-18.9-1.9-25.6-11.5-2.3-3.3-4.3-7.5-4.3-18.4v-44.3z"></path><path fill-rule="evenodd" d="m1079 25.2h26c3.7 0 11.4 0 16.7 3.4 5.4 3.5 8.1 9 8.1 14.8 0 5.2-1.9 9.7-5.2 12.9-3.1 3.2-6.3 4.2-8.5 4.8 6.9 1.8 10 4.9 11 14 1.1 8.5 1.8 14.8 4.6 22.8h-10.8c-1.6-4.8-2.6-13.7-3.3-19.2-1.2-10.6-3.7-13.6-15.9-13.6h-12.7v32.8h-10zm9.8 31.4h15.9c1.1 0 6.8 0 9.6-1.6 1.4-0.9 4.9-3.5 4.9-9.5 0-11.8-10.5-11.8-14.5-11.8h-15.9z"></path><path d="m1195.7 43.3c-1.2-6.7-6.6-11.3-16.5-11.3-6.8 0-12.6 1.8-16.4 6.1-6.3 7-7.7 16.5-7.7 23.4 0 6.1 1.3 16.5 6.6 22.8 4.7 5.5 12.1 7.2 19.3 7.2 8.3 0 13.5-1.6 15.9-2.3v-21.6h-16.7v-8.3h26.7v35.8c-4.2 1.4-13.5 4.4-25.9 4.4-13.3 0-21.2-3.8-26.3-9-7.2-7.3-10.2-17.4-10.2-27.7 0-7.3 1.8-24.4 15.6-33.7 7.1-4.8 16.6-5.1 20.2-5.1 5.8 0 14.6 0.7 21.5 7.8 4.3 4.5 4.6 8.7 4.8 11.5z"></path><path d="m1234.9 25.2v31.2h34.5v-31.2h10.1v72.7h-10.1v-32.8h-34.5v32.8h-10.1v-72.7z"></path><path fill-rule="evenodd" d="m693.6 127.9h26c8.9 0 13.8 0.9 18.4 5.4 3.1 3 5.1 7.2 5.1 13 0 11.9-8.8 15.1-12.3 16.4 4.2 1.2 14.5 4.2 14.5 18.1 0 9.9-6.3 14.9-8.7 16.5-5.1 3.4-10.7 3.4-16.5 3.4h-26.5zm9.8 30.7h14.1c3.4 0 15.1 0 15.1-11.5 0-11-9.1-11-14.7-11h-14.5zm0 33.9h17.2c8 0 14.3-4.3 14.3-12.6 0-7.3-5-12.6-13.9-12.6h-17.6z"></path><path d="m770.7 127.9v45.1c0 7.7 1.7 10.9 3.2 13.1 4.6 6 11.6 7.1 16.7 7.1 19.6 0 19.6-15.4 19.6-20.6v-44.7h9.8v44.9c0 3.9-0.1 12-6 19.3-7.1 9-18.2 10.1-23.4 10.1-6.9 0-19-1.9-25.7-11.6-2.2-3.2-4.3-7.5-4.3-18.3v-44.4z"></path><path d="m845.8 179.4c0.2 5 0.8 14.4 17.5 14.4 15.1 0 17-9.4 17-13 0-8.1-6.5-9.8-16.7-12.3-11.1-2.7-16-3.9-19.7-6.4-6-4.1-7.6-9.5-7.6-14.3 0-14.8 14-21.3 27.7-21.3 4.8 0 14.6 0.8 20.5 7.2 4 4.4 4.2 9.3 4.4 12.4h-10.5c-0.5-9.1-8.2-11.1-15.3-11.1-10.1 0-16.1 4.5-16.1 11.8 0 6.4 4.2 8.6 13.1 10.7 17.3 4.5 19.2 4.9 23.4 7.7 6.8 4.4 7.3 11.5 7.3 14.5 0 12.9-10.1 22.7-28.7 22.7-5.6 0-16.8-0.9-22.6-8.3-4.1-5.3-4.2-11.2-4.2-14.7z"></path><path d="m905.7 127.9h10.1v72.8h-10.1z"></path><path d="m934.4 127.9h14l35.8 60.2v-60.2h9.3v72.8h-12.9l-37-61.8v61.8h-9.2z"></path><path d="m1010.9 127.9h45.6v8.6h-35.5v22.7h33.8v8.4h-33.8v24.2h36.3v8.9h-46.4z"></path><path d="m1080.9 179.4c0.2 5 0.8 14.4 17.5 14.4 15.2 0 17.1-9.4 17.1-13 0-8.1-6.6-9.8-16.8-12.3-11-2.7-16-3.9-19.7-6.4-5.9-4.1-7.6-9.5-7.6-14.3 0-14.8 14-21.3 27.7-21.3 4.9 0 14.7 0.8 20.5 7.2 4 4.4 4.2 9.3 4.4 12.4h-10.4c-0.6-9.1-8.2-11.1-15.4-11.1-10 0-16.1 4.5-16.1 11.8 0 6.4 4.3 8.6 13.1 10.7 17.3 4.5 19.3 4.9 23.5 7.7 6.7 4.4 7.2 11.5 7.2 14.5 0 12.9-10 22.7-28.7 22.7-5.5 0-16.8-0.9-22.5-8.3-4.2-5.3-4.3-11.2-4.3-14.7z"></path><path d="m1148.1 179.4c0.2 5 0.8 14.4 17.5 14.4 15.1 0 17.1-9.4 17.1-13 0-8.1-6.6-9.8-16.8-12.3-11-2.7-16-3.9-19.7-6.4-5.9-4.1-7.6-9.5-7.6-14.3 0-14.8 14-21.3 27.7-21.3 4.9 0 14.6 0.8 20.5 7.2 4 4.4 4.2 9.3 4.4 12.4h-10.5c-0.5-9.1-8.1-11.1-15.3-11.1-10 0-16.1 4.5-16.1 11.8 0 6.4 4.2 8.6 13.1 10.7 17.3 4.5 19.3 4.9 23.5 7.7 6.7 4.4 7.2 11.5 7.2 14.5 0 12.9-10 22.7-28.7 22.7-5.5 0-16.8-0.9-22.5-8.3-4.2-5.3-4.3-11.2-4.3-14.7z"></path><path d="m700.2 282.1c0.2 5.1 0.8 14.4 17.5 14.4 15.1 0 17-9.3 17-13 0-8.1-6.5-9.7-16.7-12.3-11.1-2.7-16-3.9-19.7-6.4-6-4-7.6-9.5-7.6-14.3 0-14.8 14-21.3 27.7-21.3 4.9 0 14.6 0.8 20.5 7.2 4 4.4 4.2 9.4 4.4 12.4h-10.5c-0.5-9.1-8.1-11.1-15.3-11.1-10.1 0-16.1 4.5-16.1 11.8 0 6.4 4.2 8.7 13.1 10.8 17.3 4.4 19.2 4.8 23.5 7.6 6.7 4.5 7.2 11.5 7.2 14.5 0 12.9-10.1 22.7-28.7 22.7-5.5 0-16.8-0.9-22.6-8.3-4.1-5.3-4.2-11.1-4.2-14.7z"></path><path d="m804 250.3c-0.4-2.5-1.8-12.6-15.8-12.6-17.5 0-20.6 17.9-20.6 30 0 13.7 3.9 28.5 20.5 28.5 4.5 0 8.7-1.1 11.8-4.3 2.6-2.8 3.2-5.9 3.5-7.7h11.1c-1.5 14.4-14.7 20.3-27.2 20.3-25.6 0-30.5-22.6-30.5-36.7 0-15.3 6-38.2 31.8-38.2 10.3 0 24.8 4.2 26.1 20.7z"></path><path d="m837.4 230.7v31.2h34.6v-31.2h10v72.7h-10v-32.9h-34.6v32.9h-10.1v-72.7z"></path><path fill-rule="evenodd" d="m906.5 238.5c7.6-8.2 17.5-9.8 24.3-9.8 20.1 0 32.8 12.9 32.8 37.6 0 19.4-7.7 38.8-33.6 38.8-24.8 0-32.9-17.6-32.9-37.6 0-8.2 1.5-20.4 9.4-29zm7.7 51.4c4.1 5.1 10.3 6.6 16.1 6.6 5.9 0 11.9-1.6 16.1-6.6 6-7.3 6.6-18.8 6.6-23.7 0-16.5-5.5-29-22.1-29-18.4 0-23.2 14.8-23.2 29.7 0 8 1.4 16.7 6.5 23z"></path><path fill-rule="evenodd" d="m984.9 238.5c7.6-8.2 17.5-9.8 24.3-9.8 20.1 0 32.8 12.9 32.8 37.6 0 19.4-7.7 38.8-33.6 38.8-24.8 0-32.9-17.6-32.9-37.6 0-8.2 1.4-20.4 9.4-29zm7.7 51.4c4.1 5.1 10.3 6.6 16.1 6.6 5.9 0 11.9-1.6 16.1-6.6 5.9-7.3 6.5-18.8 6.5-23.7 0-16.5-5.4-29-22-29-18.5 0-23.2 14.8-23.2 29.7 0 8 1.4 16.7 6.5 23z"></path><path d="m1057.3 230.7h10v63.7h33.9v9h-43.9z"></path></g><g><g><path d="m139.3 162l0.3-0.1c0.6-0.2 2.1-0.5 3.7-0.5 0.9 0 1.8 0.1 2.5 0.4 2.4 0.8 4.4 1.3 5.9 1.3 0.7 0 1.2 0 1.9-0.5 0.6-0.5 0.6-1.2 0.2-1.8-0.4-0.5-1.1-0.5-1.6-0.2v-0.1l-0.5 0.1c-0.9 0-2.9-0.4-5-1.2-1.1-0.4-2.3-0.6-3.4-0.6-2.6 0-4.7 0.8-4.8 0.8-0.6 0.2-1 0.9-0.8 1.6 0.2 0.7 1 1 1.6 0.8z"></path><path d="m139.1 175.9l0.4-0.1c0.7-0.3 2.5-0.8 4.4-0.8q1 0 2 0.2c2.3 0.6 4.3 0.9 5.7 0.9 0.7 0 1.3 0 2-0.5 0.6-0.4 0.6-1.2 0.2-1.8-0.4-0.5-1.1-0.5-1.6-0.2h-0.2-0.4c-1 0-2.9-0.3-5.1-0.8-0.9-0.2-1.8-0.3-2.6-0.3-3.1 0-5.6 1-5.7 1-0.7 0.3-1 1-0.7 1.7 0.2 0.6 1 0.9 1.6 0.7z"></path><path d="m127.7 165.9c-0.9 0.1-2 0.2-3 0.5-2.2 0.6-4.1 1-5.1 1l-0.4-0.1h-0.1v0.1c-0.5-0.3-1.2-0.3-1.6 0.2-0.4 0.5-0.4 1.3 0.2 1.8 0.7 0.5 1.2 0.5 1.9 0.5 1.5 0 3.5-0.4 5.8-1.1 0.7-0.2 1.5-0.3 2.3-0.3 1.2 0 2.3 0.2 3.1 0.4l1 0.2 0.3 0.1c0.6 0.3 1.4-0.1 1.6-0.7 0.2-0.7-0.1-1.4-0.8-1.7 0 0-2.4-0.8-5.2-0.9z"></path><path d="m127.4 172.7c-0.8 0-1.7 0.1-2.6 0.3-2.2 0.5-4.1 0.8-5.1 0.8h-0.5-0.1c-0.5-0.3-1.2-0.2-1.6 0.3-0.4 0.5-0.4 1.3 0.2 1.7 0.7 0.6 1.3 0.5 2 0.6 1.4 0 3.4-0.4 5.7-0.9q1-0.3 2-0.3c1.3 0 2.5 0.3 3.4 0.5l1 0.3 0.4 0.1c0.6 0.3 1.4-0.1 1.6-0.7 0.3-0.7 0-1.4-0.7-1.6-0.1-0.1-2.6-1.1-5.7-1.1z"></path><path d="m139.2 169l0.3-0.1c0.7-0.2 2.4-0.6 4.1-0.6 0.8 0 1.5 0 2.3 0.3 2.3 0.7 4.3 1.1 5.8 1.1 0.6-0.1 1.2 0 1.9-0.5 0.6-0.5 0.6-1.3 0.2-1.8-0.4-0.5-1.1-0.6-1.6-0.3h-0.1-0.4c-1 0.1-3-0.3-5.1-1-1-0.3-2.1-0.4-3-0.4-2.8 0-5.2 0.9-5.3 0.9-0.6 0.3-1 1-0.7 1.6 0.2 0.7 1 1 1.6 0.8z"></path><path d="m119.6 163.3c1.5 0 3.5-0.4 5.9-1.3 0.7-0.3 1.6-0.4 2.5-0.4 1 0 2 0.2 2.8 0.3l0.9 0.2 0.3 0.1c0.6 0.2 1.4-0.1 1.6-0.8 0.2-0.6-0.2-1.3-0.8-1.6-0.1 0-2.2-0.7-4.8-0.7-1.1 0-2.3 0.1-3.4 0.5-2.1 0.8-4.1 1.2-5 1.2h-0.4-0.1c-0.5-0.3-1.2-0.3-1.6 0.2-0.4 0.6-0.4 1.4 0.2 1.8 0.7 0.5 1.2 0.5 1.9 0.5z"></path><path fill-rule="evenodd" d="m98.9 143.4h-75.9v49.8c-0.1 45.7 18.7 73.8 37.5 90.2 18.8 16.4 37.5 21.2 37.7 21.3l0.6 0.1 0.6-0.1c0.2-0.1 19-4.9 37.8-21.3 18.8-16.4 37.7-44.5 37.6-90.2v-49.8zm35.2 136.4c-9 7.8-18 12.9-24.8 16-3.4 1.5-6.2 2.6-8.1 3.3q-0.1 0-0.2 0.1v-18.8l14.5 9.2 1.5-0.1 0.4-1.4-4.3-14.6 13.1-9.5 0.5-1.4c-0.2-0.6-0.7-0.9-1.2-0.9h-16.3l-6.2-18.8c12.2 0 47.7 0 57.7 0-6.9 16.3-16.8 28.2-26.6 36.9zm-104-60.6c3.6 0 10.2 0 13.4 0q-0.1 0.1-0.1 0.1 0 0.9 0.5 1.7c-1.9 1.3-3.2 3.3-3.2 5.4 0 1.2 0.6 2.6 1.8 3.3 0.8 0.4 1.7 0.7 2.5 0.7 1.4 0 2.5-0.7 3.4-1.4 0.1-0.1 0.1-0.2 0.3-0.3q0 0.1 0 0.2c0.2 0.6 0.5 1.2 0.9 1.8 0.4 0.5 1 1.1 1.8 1.3l1.1 0.1q0.8 0 1.5-0.3c-0.7 0.9-1.1 2-1.2 3.3 0 0.6 0.1 1.6 0.7 2.6 0.1 0.2 0.4 0.4 0.7 0.7h-18.9c-2.1-5.9-3.9-12.2-5.2-19.2zm54.9 65.1c0-1.9 0.5-4.3 2-6.5 1.6-2.2 2.3-3 2.9-3.7 0.6-0.8 1-1.5 1.7-3.2 0.2-0.5 0-1.2-0.5-1.5l-1.6 0.2-0.6 0.5c-1 1.1-3.6 3.2-5.5 3.3l-1.4 0.1h-1.3c-1.5 0-3.2 0.3-5.2 1.3q0.6-1 1.4-1.7c1.2-1 2.9-1.7 5.4-3 2.2-1.2 4-1.7 5.9-3.9 1.7-2 2.2-3.7 3.5-5.6 0.5-0.7 0.7-1.6 1-2.8 0.6-3.5 1.1-9.5 1.1-14.2 0-2.3-0.1-4.3-0.4-5.5-0.6-2.3-0.4-4.9-2.3-8.2-1.2-2.1-3.2-4.4-6.5-7.1q1.7 0.3 3.2 0.4c0.2 0 0.4 0 0.5 0q1.2 0 2.2-0.1 0 0 0.1 0c0.2-0.1 0.4-0.2 0.6-0.2 0.4-0.1 0.9-0.2 1.3-0.3l0.1-0.1q0 0 0 0l0.6-0.6q0-0.1 0-0.1c0.2-0.7 0.5-1.5 0.6-2.6q0.1-0.5 0.1-0.9 0.1-1.1 0.1-2.3 0.1 0 0.1 0l0.1-0.1 1.1-0.2c0 0 0-0.1 0.1-0.1h0.1c0.2-0.2 0.4-0.4 0.6-0.6q0.1-0.1 0.2-0.2c0.2-0.3 0.4-0.6 0.6-0.9v62.2q-0.1 0-0.1 0c-1.7 0-3.9 0.2-6 1.4-1.3 0.8-2.5 1.8-3.7 3.4q-1 1.4-2.1 3.4zm-28.2-43.3l0.9-0.9c0.4-0.4 0.7-1.1 0.7-1.8 0-0.7-0.6-1.3-1.3-1.3-1 0-1.2-0.3-1.5-0.6l-0.3-1.3c0-1.1 1.2-2.6 2.3-3 1-0.5 2.6-1.2 3.7-1.8 0.5-0.3 0.8-0.8 0.7-1.4-0.1-0.5-0.5-0.9-1-1-0.9-0.2-1.7-0.5-2.2-0.9l-0.7-1.2 0.2-0.6 0.3-0.5q0.1 0 0.1-0.1 0.1 0 0.1 0c0.2-0.1 0.5-0.2 1-0.2q0 0 0 0h0.1 0.7q0.6 0.1 1.7 0.3 0.3 0 0.6 0.1 0.9 0.1 2 0.1c0.4 0 0.9-0.1 1.4-0.2 0.5-0.1 0.9-0.1 1.4-0.2l0.1-0.1 0.7-0.9 0.1-0.1-0.2-0.4-0.3-0.7-0.1-0.1h-0.1c-0.1-0.1-0.2-0.2-0.4-0.3q-0.3-0.2-0.5-0.5-0.1 0-0.1-0.1c-0.2-0.2-0.2-0.4-0.2-0.6q0 0-0.1-0.1c0-0.1 0.1-0.1 0.1-0.2 0-0.2 0.1-0.4 0.2-0.6 0.1-0.2 0.4-0.3 0.6-0.5 0.1-0.1 0.1-0.2 0.2-0.3 0.3-0.2 0.6-0.3 1-0.4 0.1-0.1 0.2-0.2 0.4-0.2q0.7-0.2 1.6-0.2 0 0 0-0.1l0.1 0.1c0.4 0 0.8 0.1 1.3 0.2 0.3 0 0.6 0.1 1 0.2q0.3 0.1 0.5 0.2 0.9 0.3 1.8 0.8 0.1 0.1 0.3 0.1 0.4 0.2 0.8 0.5c2.5 1.6 4.5 3 6.2 4.3q0.2 0.2 0.4 0.4c-0.9 0.2-1.9 0.5-2.8 1.1-2.4 1.7-3 4.5-3.5 6.4-0.3 1-0.6 1.8-1 2.2-0.3 0.4-0.5 0.6-1.3 0.7h-0.2l-1-0.3c-0.4-0.1-0.8-0.5-1.5-1.2l-1.6-0.2c-0.8 0.6-1.3 1.4-1.5 2.1-0.3 1.1-0.3 2.1-0.5 2.9-0.3 0.7-0.5 1.1-1.4 1.5l-0.5 0.1c-0.5 0-1.3-0.3-1.9-1.7l-1.3-0.7c-0.7 0-1.5 0.4-1.9 1-0.7 0.8-0.7 1.7-0.8 2.4 0 0.7-0.1 1.3-0.2 1.6v0.1c-0.2 0.4-1.7 1.2-2.3 1.1-0.8 0-1.3-0.1-1.5-0.3-0.2-0.2-0.3-0.3-0.3-1.1 0-0.9 0.2-1 0.7-1.6zm-7.1-16.2l-1.3 0.4c-0.5 0.6-1.1 1.4-1.7 1.9q-0.9 0.7-1.7 0.8l-1.2-0.4c-0.4-0.3-0.5-0.6-0.6-1.1 0-1.2 1.3-3.3 3.2-4l0.8-1-0.5-1.2c-0.7-0.4-0.7-0.8-0.7-0.9l0.3-0.6c0.4-0.2 1-0.4 1.8-0.4h0.6c0.3 0.1 2.2 0.5 4.3 0.5 0.7 0 1.3-0.1 2-0.2 0.1 0 0.2-0.1 0.2-0.1q0.4-0.1 0.6-0.2c0.3-0.2 0.6-0.3 0.6-0.4h0.1q0-0.1 0.1-0.1l0.3-0.6 0.1-0.3-0.4-1-0.4-0.7 0.1-0.3q0.1-0.1 0.3-0.2l0.8-0.3q0.1 0 0.4 0c1.1 0 2.2 0.2 3.2 0.5q0.1 0 0.1 0c1.1 0.3 2.1 0.7 2.8 1.1l1.4-0.1 0.1-0.1 0.3-1.2c0 0 0-0.1 0-0.1-0.1-0.4-0.2-0.7-0.3-1.1q-0.1-0.3-0.1-0.7c-0.1-0.4-0.2-0.8-0.2-1.1l0.1-0.5v-0.1h0.1l0.4 0.1c1.1 0.2 2.3 0.7 3.3 1.3q0.6 0.3 1 0.7c0.1 0.1 0.4 0.3 0.5 0.4q0.5 0.6 0.6 1.2 0 0 0.1 0.1v0.2q0 0 0 0l0.1 0.6h-0.5q0 0 0 0 0 0-0.1 0-1.2 0-2.3 0.4c-0.3 0-0.5 0.2-0.7 0.3-0.4 0.1-0.9 0.3-1.3 0.5q0 0.1-0.1 0.1 0 0.1-0.1 0.1c-0.2 0.1-0.3 0.4-0.5 0.5-0.3 0.3-0.7 0.6-0.9 0.9-0.2 0.3-0.2 0.7-0.3 1.1-0.2 0.3-0.4 0.5-0.4 0.9v0.3c0 0 0.1 0.1 0.1 0.2q0 0.5 0.2 1.1c0.1 0.1 0.1 0.2 0.2 0.3q-1.1 0-2.1-0.1c-0.4-0.1-0.8-0.2-1.2-0.2l-0.4-0.1c-0.1 0-0.3 0-0.5 0l-0.5-0.1h-0.1q0 0 0 0-0.7 0-1.3 0.2-0.2 0.1-0.3 0.1-0.4 0.1-0.8 0.4-0.1 0-0.1 0c-0.1 0.1-0.2 0.2-0.2 0.2q-0.4 0.3-0.6 0.6-0.1 0.1-0.2 0.2-0.1 0.1-0.2 0.2c0 0.2 0 0.3-0.1 0.4 0 0.1-0.1 0.2-0.2 0.3v0.3c-0.2 0.6-0.2 1-0.2 1.2v0.1c0 0-0.3 1.3-1 2.1-0.6 0.9-1.4 1.5-2.1 1.5l-0.4-0.1-0.5-0.3c-0.2-0.4-0.5-1.1-0.6-1.7-0.2-0.7-0.3-1.3-0.4-1.8zm-4.9-15.4l0.4-0.8c0.2-0.2 0.8-0.6 2-0.8 0.6-0.2 1-0.7 1-1.3-0.1-0.6-0.5-1.1-1.1-1.2-1.6-0.3-3.4-0.8-4.7-1.5-1.3-0.8-2-1.7-2-2.7v-0.4c0-1.1 0.2-1.5 1-2q0.2-0.1 2.5-0.3c0.5-0.1 1-0.5 1.1-1l-0.6-1.4c-0.8-0.5-1.4-0.9-1.8-1.3-0.3-0.4-0.5-0.8-0.6-1.6l0.1-0.7c0.2-1.3 1-1.7 1.9-1.7h0.3c0.9 0.2 1.3 0.4 1.5 0.8 0.3 0.3 0.4 0.8 0.4 1.6q0 0.7-0.1 1.5c-0.1 0.6 0.1 1.1 0.7 1.4l1.5-0.3 1.3-0.6 0.4 0.1 0.4 0.1 0.4 0.5c0.2 0.4 0.4 0.9 0.5 1.4l0.2 1.4c0 0.7-0.1 1.4-0.8 2.1v1.6c0.4 0.5 1.1 0.7 1.6 0.3l0.3-0.2q0 0 0-0.1l0.3-0.2c0.3-0.5 0.8-1.2 1.3-1.8 0.5-0.5 1-0.8 1.1-0.8h0.1c0.4 0 0.6 0.1 0.9 0.1q0 0.1 0.1 0.1 0 0 0.1 0.1l0.5 0.4c0.3 0.4 0.6 0.8 0.7 1.4v0.4c-0.1 0-0.2 0.1-0.4 0.1-0.2 0-0.4 0-0.6 0.1l-0.3 0.2c-0.1 0-0.2 0-0.3 0 0 0.1-0.1 0.2-0.1 0.2l-0.5 0.3c-0.1 0-0.1 0.2-0.1 0.3-0.4 0.4-0.6 1-0.6 1.5 0 0.2 0.2 0.5 0.2 0.7 0.1 0.3 0.1 0.6 0.3 0.9q0.1 0.2 0.2 0.4c0.5 1 1.3 1.8 2.1 2.5 0.1 0.1 0.3 0.1 0.5 0.3q0.6 0.4 1.3 0.8 0.3 0.2 0.6 0.4c0.2 0.1 0.4 0.2 0.6 0.3 0.5 0.3 1 0.4 1.4 0.6q0.1 0 0.1 0 0.1 0 0.1 0.1 0.2 0 0.4 0.1v0.4q0.1 0.3 0.1 0.6-0.6-0.2-1.3-0.4c-0.1-0.1-0.3 0-0.4-0.1-1.1-0.2-2.1-0.4-3.1-0.4q0 0-0.1 0-0.1 0-0.2 0c-0.2 0-0.4 0.1-0.6 0.1q-0.3 0-0.5 0.1-0.4 0.1-0.7 0.3c-0.1 0-0.3 0-0.4 0.1 0 0 0 0.1-0.1 0.1-0.5 0.4-0.9 0.8-1.2 1.2-0.2 0.4-0.3 0.9-0.4 1.4 0 0 0 0.1 0 0.1q0 0 0 0.1c-1.1-0.6-2.2-1.2-3.4-1.4-1.1-0.3-2.6-1-3.8-1.9-1.1-0.8-1.7-1.9-1.7-2.5zm9.9-40.1v-0.5c0-0.6 0.1-1 0.4-1.3l0.9-0.4c0.1 0.1 0.7 0.3 1.2 0.6 0.6 0.3 1 0.6 1.4 0.8l1.4-0.3 0.2-1.5c-0.7-1.2-1.1-2.3-1.1-3.4 0-1.1 0.2-2 0.7-2.6 0.4-0.6 0.9-0.9 1.6-0.9 0.6 0 0.9 0.2 1.2 0.5 0.2 0.3 0.5 0.9 0.5 1.8l-0.1 1 0.6 1.3h1.4c0.8-0.6 1.3-1 1.6-1.2l0.5-0.3h0.2l0.2 0.1c-0.2 0.6-0.3 1.2-0.3 1.9q0 0.1 0 0.1 0 0.1 0 0.1c0 0.1 0 0.1 0 0.2q0 0.3 0.1 0.6c-0.2 0-0.3 0-0.4 0q0 0 0 0-0.6 0-1.1 0.2c-0.2 0-0.3 0.2-0.4 0.2-0.2 0.1-0.4 0.2-0.6 0.4q0 0 0 0 0 0.1-0.1 0.1c-0.2 0.2-0.4 0.6-0.5 0.9q-0.1 0.1-0.1 0.1-0.1 0.1-0.1 0.3c-0.1 0.2-0.1 0.5-0.2 0.6v0.4q0 0 0 0.1l-0.1 0.2v0.3c0 1.3 0.6 2.4 1.2 3.3q0.7 0.9 1.4 1.7 0 0 0.1 0-0.1 0.1-0.2 0.1-0.3 0-0.6 0.1-0.1 0-0.3 0.1-0.4 0.1-0.9 0.4 0 0-0.1 0c0 0.1 0 0.1-0.1 0.1-0.1 0.1-0.3 0.2-0.5 0.4-0.1 0.1-0.2 0.3-0.3 0.5q-0.1 0.1-0.2 0.3c0 0-0.1 0.1-0.1 0.2-0.2-0.1-0.4-0.2-0.6-0.2q0 0 0 0 0 0-0.1 0c-0.5 0-1 0.2-1.4 0.3q0-0.5-0.1-1-0.1-0.1-0.1-0.3c0-0.2 0-0.4-0.1-0.6q-0.3-0.9-0.6-1.8c-0.1-0.2-0.1-0.3-0.1-0.4q0 0 0 0 0 0 0 0c-0.1-0.2-0.2-0.3-0.3-0.4 0-0.1-0.1-0.3-0.1-0.4-0.1 0-0.1-0.1-0.2-0.1q-0.4-0.7-1.2-1.1 0 0 0-0.1-0.1 0-0.1 0c-0.6-0.3-1.3-0.5-1.9-0.5q-0.1 0-0.1 0h-0.1q0 0-0.1 0c-0.2 0-0.4 0-0.6 0.1-0.3-0.4-0.5-0.7-0.6-1.1zm17.8-3l0.1 1.5 1.4 0.4c0.7-0.3 1.8-0.8 2.2-0.7h0.1c0.6 0.1 1.1 0.5 1.5 1.3 0.2 0.4 0.3 0.8 0.4 1.2 0.2 0.7 0.3 1.4 0.3 2.1 0 0.5 0 0.8-0.1 1.2q0 0 0 0.1-0.3 0.1-0.5 0.3-0.3 0.3-0.5 0.7-0.1 0.1-0.2 0.3-0.2 0.4-0.4 0.7-0.1 0.5-0.2 1 0 0.1 0 0.2 0 0 0 0c0 0.8 0.3 1.5 0.7 2.2q0 0-0.1 0-0.1 0.1-0.1 0.1-0.5 0.2-0.9 0.6-0.1 0-0.2 0c0 0.1 0 0.2-0.1 0.3-0.1 0.1-0.3 0.3-0.4 0.4 0 0.2-0.1 0.3-0.1 0.5q-0.1 0-0.1 0.1-0.2 0.7-0.2 1.4c0 0.2 0 0.3 0 0.5l0.1 0.4c0 0.1 0.1 0.3 0.1 0.5q0.1 0.7 0.3 1.4 0.2 0.4 0.3 0.7c0.1 0.2 0.2 0.4 0.2 0.6q0.1 0.1 0.2 0.2 0.4 0.8 0.8 1.5 0.1 0.1 0.2 0.3 0.7 0.9 1.4 1.6-0.1 0-0.1 0-0.5-0.1-1.1-0.2c0 0-0.1 0-0.2 0q0 0 0 0 0 0 0 0h-0.2c-0.2 0-0.4 0.1-0.6 0.1 0-0.5-0.1-1.1-0.3-1.7-0.2-0.5-0.7-1-1.2-1.4-0.1 0-0.1-0.1-0.2-0.2-0.1-0.1-0.2-0.1-0.3-0.1-0.1-0.1-0.1-0.1-0.2-0.2-0.1 0-0.3 0-0.4-0.1q-0.8-0.2-1.6-0.3c-0.1 0-0.2 0-0.2 0q-0.1 0-0.1 0 0 0-0.1 0h-0.1c-0.4 0-0.8 0.1-1.1 0.3-0.1-0.2-0.1-0.4-0.3-0.6 0 0-0.1 0-0.2 0h0.1c-0.9-0.5-2.5-2.1-3.3-2.9l0.1-0.2-0.1-0.4q0 0 0-0.1v-0.9l-0.2-0.8-0.1-0.5q0-0.1 0-0.1-0.1-0.1-0.1-0.1c0-0.2-0.2-0.5-0.4-0.7-0.1-0.2-0.2-0.4-0.3-0.6-0.1-0.1-0.3-0.2-0.5-0.3l0.1-0.1q0.1-0.1 0.2-0.2 0-0.1 0.1-0.1c0.2-0.1 0.5-0.2 1-0.3h0.1l0.7-0.1q0.8 0 1.7-0.1h0.3q0-0.1 0-0.1l0.8-0.6 0.3-0.3-0.5-1.3-0.7-0.5c-0.6-0.5-1.4-1.3-2.1-2.1-0.1-0.1-0.2-0.2-0.2-0.4-0.6-0.7-1-1.5-0.9-2v-0.2c0-0.2 0-0.3 0.1-0.5 0-0.1 0-0.2 0.1-0.3q0-0.1 0-0.1 0.1-0.1 0.1-0.1l0.3-0.1c0.3 0 0.9 0.2 1.4 0.4q0.1 0.1 0.1 0.1 0 0 0.1 0l0.8-0.1 0.5-0.1 0.3-1.4q0 0 0 0c-0.3-0.9-0.4-1.5-0.4-2.1q0-0.1 0-0.1c0-0.6 0.1-1 0.3-1.4q0.1-0.1 0.1-0.3 0.3-0.5 0.7-0.9c0.6-0.5 1.4-0.8 1.6-0.8l0.8 0.4c0.2 0.2 0.4 0.4 0.4 1 0 0.7-0.2 1.7-1.1 3.2zm9.3 2.1h0.9c0.6 0.2 1.2-0.2 1.4-0.7 0.3-0.6 0-1.3-0.5-1.6-0.6-0.3-1.3-1.7-1.2-2.7v-0.4c0.1-0.7 0.4-1.3 0.6-1.6 0.3-0.3 0.5-0.4 1.1-0.5l0.3 0.1 0.6 0.9q0 0.1 0 0.1c0.4 0.5 1.2 0.7 1.8 0.3 0.5-0.4 0.6-1.2 0.2-1.8l-0.1-0.8 0.1-0.9c0.1-0.9 0.4-1.5 0.7-1.8 0.3-0.3 0.7-0.5 1.3-0.5h0.5c1.9 0.3 2.9 1.8 2.9 3.6l-0.1 0.8-0.5 0.3c-0.5 0.3-0.8 0.9-0.6 1.4 0.1 0.6 0.6 1 1.2 1h1.1l0.9 0.7 0.5 1.4-0.6 1c-0.5 0.4-1.2 0.7-2 0.7-0.2 0-0.3 0-0.5 0h-0.2c-0.7 0-1.2 0.6-1.3 1.2 0 0.7 0.5 1.3 1.2 1.4h0.1 0.4c0.1 0 0.2-0.1 0.3-0.1 0.6 0 1 0 1.2 0l0.7 0.1c0.6 0.2 1 0.5 1.3 1 0.2 0.5 0.4 1.2 0.4 1.9l0.1 1.3c0 1-0.1 2-0.4 2.8-0.3 0.9-0.7 1.3-1.4 1.5-0.6 0.2-0.9 0.7-0.9 1.3 0.1 0.6 0.5 1.1 1.1 1.2 1 0.1 1.2 0.3 1.4 0.6 0.2 0.4 0.4 1.2 0.5 2.4 0.1 0.9 0.1 1.8 0.1 2.8q0 0.5 0 1.1c-0.1-0.2-0.2-0.3-0.3-0.5-0.1-0.1-0.1-0.3-0.2-0.4q-0.1 0-0.1-0.1-0.6-0.6-1.2-0.9-0.1 0-0.2 0-0.2-0.1-0.4-0.1c-0.6-0.2-1.2-0.3-1.8-0.3h-0.7q0 0 0 0 0.1-0.2 0.2-0.4c0.2-0.5 0.3-1.1 0.4-1.7 0-0.1 0.1-0.3 0.1-0.4q0 0 0-0.1 0 0 0.1 0h-0.1c0.1-0.3 0.1-0.7 0.1-1 0-0.1 0.1-0.2 0.1-0.4v-0.1q0 0 0-0.1 0-0.1 0-0.2l-0.1-0.8q0-0.1 0-0.2-0.1-0.5-0.2-1-0.1-0.3-0.2-0.6c-0.1-0.2-0.1-0.3-0.2-0.5q-0.1-0.2-0.3-0.5 0 0 0 0 0-0.1-0.1-0.1-0.3-0.5-0.9-0.9-0.1 0-0.3-0.1c-0.3-0.2-0.7-0.4-1.2-0.4q0 0 0 0-0.1 0-0.1 0c-0.4 0-0.7 0.2-1.1 0.3q0-0.3-0.1-0.6 0 0 0-0.1c-0.2-0.7-0.5-1.3-1.1-1.9q-0.1-0.1-0.2-0.2c-0.1-0.1-0.2-0.3-0.4-0.4q0 0-0.1-0.1-0.1 0-0.2-0.1c-0.2-0.1-0.5-0.2-0.7-0.3-1-0.4-1.9-0.7-2.7-0.7q-0.6 0-1.1 0.1 0 0 0 0c0-0.8-0.2-1.7-0.4-2.7q-0.1-0.5-0.3-0.9c0.3-0.1 0.9-0.1 1.4-0.1zm32.3 117.3l-13.1-8.2v-32.5l6.2 18.4c0.1 0.5 0.6 0.9 1.2 0.9h13.2l-10.7 7.8-0.5 1.4zm-18.9-73.8c-0.1 0.2-0.2 0.5-0.3 0.6q-0.1 0.1-0.1 0.1l-0.3 0.6-0.3 0.3h-0.1c-0.1-2-0.6-3.7-1.4-5.1q0 0 0 0c-0.9-1.4-2.2-2.5-3.8-2.5q0 0 0 0c-0.8 0-1.5 0.3-2.2 0.8q0.1-0.8 0.2-1.7c0.1-0.7 0.2-1.4 0.2-2q0-0.1 0-0.1 0-0.1 0-0.1 0-0.6-0.2-1.3 0-0.2-0.1-0.3c-0.1-0.2-0.1-0.5-0.3-0.7 0-0.1-0.1-0.1-0.2-0.2 0 0 0-0.1-0.1-0.2-0.1-0.1-0.2-0.2-0.4-0.3q-0.2-0.2-0.5-0.3-0.4-0.3-1-0.4 0-0.1-0.1-0.1h-0.1q0 0-0.1 0l-0.6-0.1c-0.5 0-0.9 0.2-1.3 0.3q0 0 0 0c0.1-0.3 0.1-0.5 0.1-0.8q0-0.9-0.1-1.9c0-0.1 0-0.1 0-0.2 0-0.2-0.1-0.5-0.1-0.8q-0.1-0.5-0.2-1c-0.1-0.3-0.1-0.6-0.2-0.8-0.1-0.3-0.2-0.6-0.3-0.8q0-0.1-0.1-0.2 0 0 0 0-0.1-0.4-0.3-0.6h0.4 0.6c0.6 0.2 1.2-0.2 1.4-0.8 0.2-0.5 0-1.1-0.5-1.5q0 0 0 0 0 0-0.1 0-0.7-0.5-1.4-1.1-0.6-0.5-1.1-1.1-0.2-0.2-0.3-0.4-0.5-0.6-1-1.4c-0.1-0.2-0.2-0.4-0.4-0.6-0.3-0.7-0.6-1.6-0.7-2.4q0-0.1 0-0.2l-0.1-0.4q0-0.3 0.1-0.5v-0.1q0-0.1 0.1-0.2l0.2-0.1 0.5-0.2c0.2 0 0.6 0.1 1.1 0.2q0.1 0.1 0.3 0.1 0.7 0.2 1.5 0.6 0 0 0 0 0 0 0 0 0 0 0.1 0.1c0.6 0.2 1.3 0 1.6-0.6 0.3-0.6 0.1-1.4-0.5-1.7q-0.1 0-0.1 0 0-0.1 0-0.1 0 0 0 0c-1.3-0.6-2.1-1.2-2.7-1.7-0.5-0.6-0.7-1.1-0.6-1.4 0-0.4 0.2-1 1-1.5q0.3-0.2 0.7-0.4c0.3-0.1 0.7-0.1 1-0.1h0.1c0.6 0 1.2 0.1 1.8 0.3 0.2 0.1 0.4 0.2 0.5 0.3q0.4 0.2 0.6 0.6 0 0 0.1 0.1c0.1 0.2 0.2 0.6 0.2 1.2q0 0.6-0.2 1.5c0 0.1 0 0.1 0 0.2 0 0.2 0 0.4 0 0.6 0.1 0.1 0.1 0.1 0.1 0.1 0.1 0.2 0.3 0.4 0.5 0.5q0 0 0 0l1.1-0.1 0.4-0.1c0.4-0.4 0.7-0.6 1-0.8 0.1-0.1 0.2-0.2 0.3-0.2 0.2-0.1 0.4-0.2 0.4-0.2l0.5 0.5q0.1 0.2 0.2 0.4 0.1 0.1 0.1 0.3 0.1 0.3 0.2 0.8 0 0.3 0 0.5l0.1 0.4-0.1 0.4q0 0.5-0.1 1-0.2 0.8-0.4 1.4 0 0.1-0.1 0.2-0.3 0.7-0.6 1.3l-0.6 0.9-0.2 0.3v0.1 0.8 0.8q0 0 0 0c0.4 0.4 1 0.6 1.5 0.3h0.1q0.7-0.4 1.4-0.6l0.2-0.1q0.7-0.2 1.4-0.2 0 0 0 0l1.1 0.2q0 0 0 0l0.6 0.6c0 0.1 0.1 0.2 0.1 0.4l0.5 2.1q0.1 0.4 0.1 0.6v0.6c0 0.6 0 1.2-0.5 2.4-0.5 1.1-1 2-1 3.4-0.1 0.6 0.4 1.2 1 1.3 0.1 0 1.5 0.3 2.6 3.7v2.5c-0.3 1.2-0.6 2.4-1 3.7q-0.5 1.4-0.8 2.3zm-26.2-24.3v-0.1zm-0.5-2.2q0.5 0.2 1 0.7-0.5-0.5-1-0.7zm16.5 35.1q-1.2-0.3-2.2-0.7-1.3-0.5-1.9-0.9-0.1-0.1-0.1-0.1-0.3-0.2-0.5-0.4l-0.6-1.1-0.3-0.6-0.1-0.4h-0.1l-1-0.2h-0.1c-0.5 0.2-1.2 0.3-1.8 0.3q-0.1 0-0.2 0c-0.5 0-1.1-0.1-1.5-0.2l-0.4-0.4-0.2-0.2-0.2-0.4 0.6-1.3 0.5-0.5 0.2-0.1v-0.1l0.1-0.1c0.2-0.2 0.4-0.5 0.5-0.8 0-0.1-0.1-0.1-0.1-0.2v-0.1c-0.1-0.5-0.4-0.9-0.8-1q-1.7-0.6-2.9-1.1-0.1-0.1-0.3-0.2c-0.7-0.4-1.3-0.7-1.8-1.1-0.9-0.7-1.1-1.3-1.1-1.9q-0.1 0-0.1-0.1c0.1-0.7 0.3-1 0.7-1.3l1.2-0.6q0.1 0 0.1-0.1l1.1-0.3 1-0.4c0.6-0.1 0.9-0.6 0.9-1.2 0-0.5-0.3-1-0.9-1.2l-0.3-0.1q-0.7-0.2-1.3-0.5-0.6-0.3-1.3-0.8c-0.2-0.2-0.5-0.3-0.8-0.5q-0.2-0.3-0.5-0.5-0.3-0.4-0.5-0.7-0.3-0.4-0.4-0.7 0-0.2-0.1-0.3v-0.4l0.2-0.6 0.9-0.2h0.2l0.9 0.1 0.5-0.2 0.8-0.3v-0.6-0.8q-0.1-0.1-0.1-0.2-0.7-0.9-1-1.6c-0.1-0.3-0.2-0.6-0.2-0.9-0.1-0.2-0.1-0.4-0.1-0.6 0-0.6 0.1-0.9 0.2-1.2q0.3-0.4 0.6-0.8h0.1q0 0 0.1 0c0.2-0.3 0.6-0.5 1.1-0.6 0.1 0 0.2-0.1 0.4-0.1q0.1 0 0.3 0 0.6 0 1 0.2 0 0 0.1 0.1l0.4 0.4q0 0.1 0.1 0.2 0.1 0.3 0.1 0.9c0 0 0 0.1 0 0.2q0 0.7-0.2 1.8v0.1q0 0 0 0 0 0 0 0c-0.1 0.6 0.1 1.1 0.6 1.4l0.5-0.1h0.9l0.1-0.1 0.3-0.3 0.1-0.1 0.5-0.6 0.5-0.2 0.7 0.3q0.1 0.1 0.2 0.1 0.1 0.2 0.3 0.6 0.1 0.1 0.2 0.2c0.2 0.5 0.3 1 0.5 1.5q0.1 0.7 0.2 1.2 0 0.2 0.1 0.4 0.1 0.9 0.1 1.7 0 0.5-0.1 1 0 0.3 0 0.6 0 0.1 0 0.2c-0.1 0.4-0.2 0.9-0.2 1.6-0.1 0.2 0 0.3 0 0.5 0.1 0 0 0.1 0.1 0.2 0.1 0.2 0.2 0.3 0.4 0.4 0 0.1 0.1 0.1 0.1 0.2q0 0 0.1 0l1.4-0.2q0-0.1 0-0.1c0.4-0.4 0.7-0.6 1-0.8q0.1-0.1 0.2-0.1 0.4-0.3 0.7-0.3l0.2 0.1q0.1 0 0.1 0 0.3 0.1 0.5 0.2 0 0 0 0 0.1 0.1 0.2 0.2 0 0 0 0.1 0.1 0.1 0.2 0.6c0 0.1 0 0.2 0 0.3 0 0.6-0.1 1.4-0.2 2.2-0.1 0.6-0.2 1.1-0.2 1.7q0 0.8 0.2 1.7c0.1 0.3 0.3 0.6 0.5 0.9 0.2 0.3 0.2 0.6 0.4 0.8h0.1q0 0.1 0 0.1l0.7 0.3 0.4 0.1h0.1l0.8-0.6 0.1-0.1q0-0.1 0-0.1 0.1 0 0.1-0.1 0.2-0.5 0.5-0.8c0.3-0.4 0.6-0.5 0.8-0.5 0.3-0.1 1 0.3 1.6 1.3 0.6 1 1.1 2.5 1.1 4.6v0.1 0.8q0 0.7 0 1.3 0 0.3 0 0.5 0 0.4 0 0.7c-0.1 1.1-0.3 2-0.5 2.6-0.7 0.2-1.6 0.3-2.6 0.3-0.3 0-0.7-0.1-1-0.1-0.8 0-1.6-0.1-2.5-0.2zm-15.9-10.8q-0.4-0.2-0.9-0.4 0.5 0.2 0.9 0.4zm11.3 11.8q-0.9-0.5-1.5-1 0.6 0.5 1.5 1zm-10.7-18.5q-0.4-0.2-0.7-0.4 0.3 0.2 0.7 0.4zm10.4-11.9q0 0-0.1-0.1 0.1 0.1 0.1 0.1zm2 9q0 0.2 0 0.3 0-0.1 0-0.3zm-2.2 0.8c0.4-0.5 1-1 1.5-1.3-0.5 0.3-1.1 0.8-1.5 1.3zm5.6 7.6c0.1-0.2 0.2-0.4 0.3-0.6-0.1 0.2-0.2 0.4-0.3 0.6zm1.8-31.8q-0.3 0.1-0.5 0.3 0.2-0.2 0.5-0.3zm14.3 61.8l-0.5-1.4v-10.8h0.4l0.7 0.2 0.2 0.3v0.1c0 0.2-0.3 1.5-0.3 2.9 0 1.1 0.2 2.4 1 3.6 1.3 1.8 3.2 2.3 4.8 2.3q1.1 0 1.9-0.3l1.3-0.1c0.7 0 1.1 0.1 1.4 0.3h1.5l0.4-1.4-0.1-0.5c0-0.5 0.3-1.3 0.8-2.1 0.6-0.9 1.1-2.3 1.1-3.8 0-1-0.3-2.2-1-3.2-1-1.3-2.4-1.9-3.5-2.2-1.2-0.4-2.3-0.4-2.5-0.5l-0.2-0.1-0.1-0.5 0.1-0.3 0.3-0.5 0.3-0.3 0.2 0.1c0.1 0 0.8 0.4 1.7 0.8 0.8 0.4 1.9 0.8 3.1 0.8l1.5-0.3c1.5-0.4 2.5-1.5 3.1-2.5 0.7-1.1 0.9-2.3 1-3.3 0-1.3 0.5-2.1 1-2.4l0.4-1.4c-0.2-0.6-0.6-0.9-1.2-0.9-0.5 0-1.4-0.4-2.2-1.4-1-1.3-2.8-2.6-5-2.6q-0.8 0-1.7 0.3c-1.5 0.5-2.5 1.6-3.2 2.6-0.6 1-1 2.1-1.1 2.2l-0.3 0.2-0.6-0.1-0.1-0.1-0.5-0.8 0.1-0.2c0.1-0.1 0.9-0.9 1.7-1.8 0.7-0.9 1.5-2.2 1.5-3.8 0-1.6-0.6-2.9-1.4-3.8-0.9-0.9-1.9-1.5-2.8-1.9-0.7-0.2-1.3-0.5-1.8-0.9l-0.7-0.7c-0.1-0.5-0.6-0.9-1.2-0.9v-1.7c10.4 0 57.7 0 69 0-0.3 16.7-3.1 30.8-7.5 42.8zm-0.7-39.7l0.2-0.1zm3.7 15.4h0.1l0.1 0.1h0.1c0.1 0.1 0.9 0.6 2.1 0.6 0.8 0.1 1.9-0.4 2.4-1.4 0.3-0.5 0.6-1.3 1.2-2.1 0.5-0.8 1.1-1.4 1.8-1.6l0.9-0.2c1.2 0 2.4 0.9 3 1.6q0.9 1.2 2.1 1.9-0.6 1.2-0.6 2.7c-0.1 0.6-0.2 1.4-0.6 2-0.4 0.7-1 1.2-1.7 1.5l-0.8 0.1c-0.6 0-1.4-0.3-2.1-0.6-0.7-0.3-1.2-0.6-1.7-0.8l-1.2-0.3c-1.2 0-1.9 0.8-2.3 1.3-0.5 0.5-0.7 1-0.7 1.1l-0.1 0.2c0 0-0.1 0.4-0.1 1 0 0.5 0.1 1 0.4 1.7 0.3 0.6 1 1.2 1.9 1.4 0.6 0.1 1.4 0.2 2.3 0.4 0.9 0.3 1.8 0.7 2.2 1.3 0.4 0.5 0.5 1.1 0.5 1.7 0 0.9-0.3 1.9-0.7 2.4-0.6 0.9-0.9 1.8-1 2.7-0.3-0.1-0.6-0.2-0.9-0.2q-0.9 0-1.9 0.3l-1.2 0.2c-1.1 0-2.2-0.4-2.9-1.3-0.3-0.5-0.5-1.2-0.5-2.1 0-1 0.3-2 0.3-2.7l0.1-0.3c0-1.4-1.1-2.3-1.8-2.6-0.8-0.4-1.4-0.4-1.5-0.4h-0.1-0.5v-1.9c0.2 0 0.3 0.1 0.5 0.1 2 0 3.6-1.6 3.6-3.6 0-1.9-1.4-3.4-3.2-3.6 0.9 0.5 1.5 1.4 1.5 2.5 0 1.5-1 2.6-2.4 2.9v-19.5c0.2 0.1 0.3 0.3 0.5 0.4 0.7 0.5 1.5 0.9 2.3 1.2 0.6 0.2 1.3 0.6 1.8 1.2 0.5 0.6 0.8 1.3 0.8 2.1 0 0.7-0.4 1.5-1 2.2-0.6 0.8-1.2 1.3-1.6 1.8-0.5 0.5-0.7 1.2-0.7 1.8 0.1 1.8 1.3 2.7 1.3 2.8zm-7.5-50.5c-0.2-0.3-0.3-0.6-0.5-0.9-0.5-0.6-1-1-1.7-1.3q0.2-0.6 0.2-1.3c0.1-2.8-1.8-5.6-5-6.1l-0.9-0.1c-1.2 0-2.3 0.5-3.1 1.3-0.8 0.8-1.2 1.9-1.4 3.2v0.1c-0.2 0-0.3-0.1-0.4-0.1-1.3 0-2.4 0.6-3 1.4-0.7 0.8-1 1.8-1.2 2.7v0.9c0 0.8 0.2 1.7 0.5 2.5-0.2 0-0.4 0-0.5 0.1-0.2 0-0.5 0.1-0.8 0.3-0.6-0.7-1.4-1.2-2.3-1.3l-0.6-0.1c-0.1 0-0.2 0.1-0.4 0.1 0.2-0.7 0.3-1.3 0.3-1.9 0.1-1.2-0.4-2.3-1.2-2.9-0.7-0.6-1.5-0.9-2.2-1h-0.3c-1 0-2.2 0.5-3.3 1.4 0 0.1-0.1 0.1-0.1 0.2-0.5-0.3-1.1-0.4-1.7-0.4h-0.4c-0.5 0-1 0.3-1.4 0.5-0.2-0.8-0.4-1.6-0.9-2.2-0.8-0.9-1.9-1.5-3.2-1.5-1.6 0-2.9 0.8-3.7 2-0.8 1.2-1.2 2.6-1.2 4.1 0 0.5 0.2 1 0.3 1.4-0.2-0.1-0.4-0.1-0.7-0.1-1.2 0-2.2 0.5-2.9 1.3-0.4 0.4-0.7 1-0.8 1.6h-24.6v-19.2h69.1zm-43.4 19h0.3l1.2-0.4 0.2-1.3c0 0-0.4-1-0.8-2.1-0.4-1.2-0.8-2.6-0.7-3.2 0-1.1 0.2-1.8 0.5-2.2 0.3-0.3 0.7-0.6 1.7-0.6h0.1l1 0.2 0.5 0.7q0.1 0.2 0.2 0.4 0.4 1 0.6 2c0.1 0.6 0.2 1.1 0.2 1.7 0 0.1 0 0.3 0 0.5v0.8 0.1 0.1l0.4 0.6 0.4 0.6 0.9-0.2 0.5-0.1q0-0.1 0.1-0.1 0.3-0.3 0.8-0.6 0.4-0.2 0.7-0.2 0.1-0.1 0.2-0.1l0.9 0.3q0.1 0 0.1 0l0.8 0.8q0 0.1 0 0.1c0.1 0.4 0.2 1 0.2 1.5q0 0.1 0 0.1v0.9c-0.2 1-0.5 1.9-1.8 3.7l0.1 1.7 1.7 0.1 0.2-0.2 1.8-0.9c0.5 0.1 0.8 0.2 1 0.4q0.1 0 0.2 0.1c0.1 0 0.1 0.2 0.2 0.3-0.1 0.2-0.3 0.3-0.4 0.6-0.2 0.4-0.3 1-0.4 1.7-0.1 0.2-0.2 0.3-0.2 0.5q0 0.1 0 0.1 0 0 0 0v0.1c0 0.8 0.2 1.5 0.5 2.1q0 0.1 0 0.2 0.1 0.1 0.2 0.3-0.2 0-0.4 0.1c-0.1 0-0.2 0-0.3 0-0.5 0.2-1.2 0.6-1.6 1.3 0 0.1 0 0.1 0 0.2q-0.3 0.7-0.4 1.5c0 0-0.1 0.1-0.1 0.2 0.1 0.1 0.1 0.2 0.1 0.3l0.1 0.6c0.1 0.3 0.2 0.6 0.3 0.9 0.1 0.2 0.2 0.4 0.2 0.5q0.6 0.9 1.4 1.7 0 0.1 0.1 0.1c0 0.1 0.1 0.1 0.2 0.2q0.8 0.7 1.6 1.1c-0.1 0.1-0.2 0.2-0.3 0.2q-0.4 0.2-0.9 0.6 0 0-0.1 0 0 0.1 0 0.1c-0.2 0.1-0.4 0.2-0.5 0.4-0.3 0.3-0.4 0.6-0.5 0.9q0 0 0 0-0.4 0.8-0.5 1.6v0.3q0 0 0 0v0.1q0 0 0 0c0 0.7 0.2 1.2 0.5 1.8 0 0.1 0 0.2 0.1 0.3q-0.2 0-0.3 0l-0.6-0.1c-0.1 0-0.2-0.1-0.2-0.1h-0.2q-0.5 0-1 0.3-0.2 0.1-0.4 0.2c-0.1 0-0.2 0.1-0.3 0.1l-0.1 0.2q0 0 0 0.1-0.1-0.1-0.1-0.1l-0.4-0.1c-0.6-0.2-1.2-0.5-1.9-0.8q-0.2-0.1-0.3-0.2-0.7-0.4-1.2-0.8-0.6-0.4-1-0.8-0.2-0.2-0.4-0.4-0.3-0.3-0.4-0.7c-0.2-0.3-0.4-0.6-0.4-0.9q0.3 0 1.1-0.1v-0.1h0.1c0.3 0 0.6-0.2 0.9-0.5h0.2c0.4-0.4 0.6-1.1 0.6-1.6v-0.2c0-0.2-0.1-0.3-0.1-0.5v-0.2-0.2c0-0.2-0.1-0.3-0.1-0.4q-0.1-0.4-0.3-0.8-0.1-0.4-0.3-0.7c-0.1-0.1-0.2-0.3-0.3-0.4l-0.2-0.3-0.1-0.1c-0.1-0.1-0.1-0.2-0.1-0.2-0.1-0.1-0.3-0.2-0.4-0.3l-0.5-0.4-0.2-0.1c-0.1-0.1-0.2-0.1-0.3-0.1-0.3-0.2-0.8-0.3-1.2-0.3-0.2 0-0.4-0.2-0.6-0.2h-0.2q0 0 0 0h-0.1q0 0-0.1 0.1c-0.8-0.1-1.2-0.4-1.5-0.7l-0.2-0.7-0.4-0.9q0-0.1 0-0.2l-0.1-0.1v-0.1c-0.1-0.1-0.1-0.1-0.2-0.2l-0.4-0.4c0.1-0.4 0.2-0.6 0.7-0.9 0.6-0.3 1.6-0.5 2.5-0.7 0.6-0.1 1-0.5 1.1-1.1 0-0.5-0.2-1-0.7-1.3l-2-1c-2.2-1.4-2.6-2.8-2.6-3.7l0.1-0.7c0.6-1.4 1.3-1.7 2-1.7zm4.3 19.6zm0.2-0.2zm8.6 22.3zm-10 5.6zm0.2-0.3c0.2-0.3 0.3-0.5 0.4-0.7q0.1 0 0.1 0.1c0.2 0.1 0.3 0.2 0.5 0.3-0.4 0.2-0.8 0.4-1.1 0.5q0.1-0.1 0.1-0.2zm14.3 7.6c0-0.3 0.1-0.4 0.1-0.6 0.4 0.2 0.7 0.6 1 0.7 0.7 0.4 1.5 0.6 2.2 0.6h0.3c1.4-0.1 2.6-0.8 3.3-1.7 1-1.4 1.3-3.1 1.7-4.6 0.5-1.5 1.1-2.7 2.2-3.4 0.8-0.6 2.3-0.9 3.8-1.1 1.6 1.6 2.6 2.9 3.3 4.1 1.5 2.6 1.4 4.6 2 7.2h-20.1c0.1-0.4 0.1-0.8 0.2-1.2zm99-46.2h-69v-42.7h69zm-102.3-28.4q0.1-0.2 0.2-0.4-0.1 0.2-0.2 0.4zm-39.9 9.4c5.1 0 18.2 0 24.3 0-0.7 1-0.9 2.2-1 3.5v0.1c0 1.3 0.5 2.7 0.9 4q0.1 0.3 0.2 0.6c-1.3 0.4-2.5 1.5-3.1 3.2q-0.3 0.7-0.3 1.6c0 1.7 1 3.8 3.3 5.4q-0.1 0.1-0.2 0.1-0.3 0.2-0.7 0.4h-2.9c-0.1-0.3-0.2-0.7-0.5-1-0.6-0.9-1.7-1.5-3.1-1.7l-0.7-0.1c-1.7 0-3.4 1-4.1 2.8h-12.1zm0.1 23.6c3.3 0 9.1 0 12.3 0 0.1 0.2 0.3 0.5 0.5 0.7-0.2 0.1-0.3 0.1-0.5 0.2-1.8 0.8-2.4 2.7-2.4 4.2v0.5c0.2 2.2 1.6 3.8 3.3 4.7 0.7 0.4 1.5 0.7 2.2 1-0.6 0.7-0.9 1.5-1 2.1l-0.1 0.6c0.1 2 1.3 3.4 2.8 4.5 0.2 0.2 0.6 0.4 0.9 0.6h-16.6q-1.3-9-1.4-19.1zm25.7 47.4c0 1.1 0.5 2.1 1.3 2.8 0.9 0.6 1.9 0.8 3 0.8 1.1 0 2-0.4 2.8-0.8 0.8-0.6 1.5-1.1 1.9-2.1 0.1-0.2 0.1-0.5 0.1-0.7 4.9 0 23.2 0 28.5 0q0.1 0.3 0.1 0.7c0 3-0.2 6.6-0.6 9.7-0.1 1.5-0.3 2.9-0.5 4-0.2 1-0.5 1.8-0.5 1.8-0.8 1.1-1.2 2-1.7 2.8h-40.3c-3.9-5.5-7.5-11.9-10.6-19 4.4 0 12.9 0 16.5 0zm30.1 23.6c-0.7 0.4-1.5 0.8-2.5 1.3-2.4 1.3-4.3 1.9-6 3.4-1.6 1.4-2.8 3.4-3.8 6.9-0.1 0.6 0.1 1.2 0.6 1.4l1.5-0.1c3.5-3.3 5.1-3.4 7.2-3.4h1.3q0.8 0 1.6-0.1c0.7-0.1 1.4-0.3 2-0.5-0.2 0.3-0.4 0.5-0.6 0.9-2 2.8-2.5 5.8-2.5 8.1 0 2.6 0.6 4.4 0.7 4.5l1.1 0.8 1.2-0.7c1.5-3.2 2.6-5.2 3.6-6.6 1-1.4 1.9-2.1 3-2.8 1.4-0.8 3.3-1.1 4.7-1q0 0 0.1 0v20.6c-6-2.1-21.7-8.3-36.6-22.6-3.1-3-6.2-6.3-9.2-10.1 7.2 0 25.8 0 32.6 0z"></path><path d="m64.1 220.4z"></path><path d="m62.6 243.7z"></path><path d="m64.8 166.6z"></path><path d="m51.1 175.5z"></path><path d="m84.4 158.3z"></path><path fill-rule="evenodd" d="m109.9 186.2l-0.8-1.2v-30.2l0.5-1 1.1-0.2 0.8 0.1c0.5 0.1 1.1 0.2 1.7 0.2v-0.7l0.4-0.7 0.2-0.3v-0.1h1.3 0.1l0.5 0.2c0.5 0.1 1.3 0.3 2.4 0.3 1.4 0 3.4-0.3 5.9-1.1 1.8-0.6 3.4-0.8 4.9-0.8 3.3 0 5.7 1.1 6.8 1.8 1.2-0.7 3.5-1.8 6.9-1.8 1.4 0 3.1 0.2 4.9 0.8 2.5 0.8 4.4 1.1 5.9 1.1 1.9 0 2.9-0.4 3-0.5h1.2v0.1l0.2 0.3 0.4 0.7v0.7h0.1c0.6 0 1.3-0.1 1.8-0.2l0.8-0.1 1.1 0.2 0.5 1v30.2c0 0.5-0.3 1-0.8 1.2-0.1 0-3.1 1.1-7.1 1.1-1.5 0-3.2-0.2-4.9-0.6q-2.2-0.5-4.3-0.5c-3.4 0-6.4 0.9-9.1 2.2l-1.2-0.1c-2.6-1.3-5.5-2.1-8.8-2.1q-2.2 0-4.5 0.5c-1.8 0.5-3.5 0.6-5 0.6-4 0-6.8-1.1-6.9-1.1zm48.3-29.7v24.9l-0.6 1.1c-0.8 0.4-1.5 0.4-2.4 0.5-2.3-0.1-5.6-0.7-8.6-1q-1.4-0.2-2.6-0.2c-4.9 0-6.6 1.9-7 2.6v1c2.5-1 5.3-1.7 8.4-1.7q2.3 0 4.9 0.6c1.5 0.3 2.9 0.4 4.3 0.4 2.4 0 4.3-0.4 5.4-0.6v-27.8q-0.8 0.1-1.7 0.2-0.1 0-0.1 0zm-15.6-3.3c-2.8 0-4.8 1-5.6 1.5v26.3c1.5-0.9 3.7-1.8 7-1.8q1.3 0 2.9 0.2c3.1 0.4 6.4 1 8.3 1h0.5v-25.2c0-0.1-0.1-0.1-0.1-0.2v-0.1c-0.6 0.1-1.3 0.2-2.2 0.2-1.7 0-4-0.3-6.8-1.2-1.5-0.5-2.8-0.7-4-0.7zm-26.8 1.7v0.1c0 0 0 0.1 0 0.2v25.2c0.1 0 0.3 0 0.5 0 1.8 0 5.1-0.6 8.2-1q1.6-0.2 3-0.2c3.3 0 5.5 0.9 7 1.8v-26.3l-1.1-0.6c-1.1-0.4-2.6-0.9-4.5-0.9-1.2 0-2.6 0.2-4.1 0.7-2.8 0.9-5 1.2-6.7 1.2-0.9 0-1.7-0.1-2.3-0.2zm-2.6 1.6q-0.9-0.1-1.6-0.2v27.8l0.8 0.2c1.1 0.2 2.6 0.5 4.4 0.5 1.3 0 2.8-0.2 4.4-0.5q2.6-0.6 5.1-0.6c3 0 5.7 0.6 8.1 1.5v-0.8-0.2l-1.1-0.9c-1-0.7-2.8-1.5-5.8-1.5q-1.2 0-2.6 0.2c-3.1 0.3-6.3 0.9-8.6 1-0.9-0.1-1.7-0.1-2.4-0.5l-0.7-1.1v-24.9q0 0 0 0z"></path><path fill-rule="evenodd" d="m164.6 211.8l-0.5 1.4c-0.4 0.3-0.9 1.2-1 2.5 0 1-0.3 2.1-0.9 3.2-0.6 1.1-1.6 2.1-3.1 2.6l-1.5 0.2c-1.3 0-2.3-0.4-3.2-0.7-0.8-0.4-1.5-0.8-1.7-0.9h-0.1l-0.3 0.2-0.4 0.5v0.3l0.1 0.5 0.2 0.2c0.2 0 1.3 0.1 2.4 0.4 1.2 0.3 2.6 0.9 3.6 2.2 0.7 1 1 2.2 1 3.3 0 1.5-0.5 2.8-1.2 3.8-0.5 0.8-0.7 1.5-0.7 2l0.1 0.5-0.5 1.5h-1.5c-0.2-0.2-0.7-0.4-1.3-0.4l-1.3 0.2q-0.9 0.2-1.9 0.3c-1.6 0-3.6-0.6-4.8-2.4-0.9-1.1-1.1-2.4-1.1-3.5 0-1.4 0.4-2.7 0.4-3l-0.2-0.3-0.7-0.2h-0.1l-0.4 0.1-0.3 0.4c0 0.3 0.3 1.6 0.3 3 0 1.1-0.2 2.4-1 3.5-1.3 1.8-3.3 2.4-4.9 2.4q-1-0.1-1.9-0.3l-1.2-0.2c-0.7 0-1.1 0.2-1.4 0.4h-1.5l-0.4-1.5v-0.5c0-0.5-0.2-1.2-0.7-2-0.6-1-1.1-2.3-1.2-3.8 0-1.1 0.3-2.3 1.1-3.3 0.9-1.3 2.3-1.9 3.5-2.2 1.1-0.3 2.3-0.4 2.4-0.4l0.2-0.2 0.1-0.5v-0.3l-0.2-0.4-0.4-0.3h-0.2c-0.1 0.1-0.8 0.5-1.7 0.9-0.8 0.3-1.9 0.7-3.1 0.7l-1.6-0.2c-1.4-0.5-2.4-1.5-3.1-2.6-0.6-1.1-0.9-2.2-0.9-3.2 0-1.3-0.6-2.2-1-2.5l-0.4-1.4c0.1-0.5 0.6-0.9 1.2-0.9 0.5 0.1 1.4-0.4 2.2-1.4 1-1.2 2.7-2.5 5-2.6q0.8 0 1.7 0.3c1.5 0.5 2.5 1.7 3.1 2.7 0.7 1 1.1 2 1.2 2.2l0.3 0.1 0.8-0.2 0.2-0.2 0.2-0.6-0.1-0.1c-0.1-0.2-1-0.9-1.7-1.8-0.8-1-1.6-2.3-1.6-3.9 0-1.5 0.7-2.8 1.5-3.7 0.9-1 1.9-1.6 2.8-1.9 1.2-0.5 1.9-1.2 2-1.7 0.2-0.5 0.7-0.9 1.2-0.9 0.6 0 1.1 0.3 1.2 0.9 0.2 0.5 0.8 1.2 2.1 1.7 0.9 0.3 1.9 0.9 2.7 1.9 0.9 0.9 1.5 2.2 1.5 3.7 0 1.6-0.8 2.9-1.5 3.9-0.8 0.9-1.6 1.6-1.8 1.8l-0.1 0.1 0.5 0.8 0.2 0.1 0.5 0.1 0.3-0.1c0.1-0.2 0.6-1.2 1.2-2.2 0.7-1 1.6-2.2 3.2-2.7q0.8-0.3 1.6-0.3c2.3 0.1 4.1 1.4 5.1 2.6 0.7 1 1.7 1.5 2.1 1.4h0.1c0.5 0 1 0.4 1.2 0.9zm-6.3 7.3c0.8-0.3 1.3-0.8 1.7-1.5 0.4-0.6 0.6-1.4 0.6-2q0.1-1.5 0.7-2.7-1.2-0.6-2.1-1.8c-0.6-0.8-1.9-1.7-3.1-1.6l-0.8 0.1c-0.7 0.2-1.4 0.9-1.9 1.7-0.5 0.8-0.8 1.5-1.1 2.1-0.6 1-1.7 1.4-2.5 1.4-1.2-0.1-2-0.6-2.1-0.6l-0.1-0.1v-0.1h-0.1c0-0.1-1.3-0.9-1.4-2.8 0-0.6 0.3-1.3 0.7-1.8 0.4-0.5 1.1-1 1.7-1.7 0.6-0.8 1-1.6 1-2.3 0-0.8-0.3-1.5-0.9-2.1-0.5-0.5-1.2-1-1.7-1.2q-1.4-0.5-2.4-1.5-0.9 1-2.3 1.5c-0.6 0.2-1.3 0.7-1.8 1.2-0.5 0.6-0.8 1.3-0.8 2.1 0 0.7 0.4 1.5 1 2.3 0.6 0.7 1.2 1.2 1.6 1.7 0.5 0.5 0.7 1.2 0.7 1.8-0.1 1.9-1.3 2.7-1.4 2.8l-0.1 0.1c-0.1 0.1-1 0.6-2.2 0.7-0.8 0-1.9-0.4-2.4-1.4-0.3-0.6-0.7-1.3-1.2-2.1-0.5-0.8-1.1-1.5-1.8-1.7l-0.9-0.1c-1.2-0.1-2.4 0.8-3 1.6q-1 1.2-2.1 1.8 0.6 1.2 0.6 2.7c0 0.6 0.2 1.4 0.6 2 0.4 0.7 1 1.2 1.7 1.5l0.8 0.1c0.6 0 1.4-0.2 2.1-0.6 0.7-0.3 1.2-0.6 1.7-0.8l1.2-0.2c1.2 0 1.9 0.7 2.3 1.2 0.5 0.6 0.7 1 0.7 1.1l0.1 0.2c0 0.1 0.1 0.5 0.1 1 0 0.5-0.1 1.1-0.4 1.7-0.3 0.6-1 1.2-1.9 1.4-0.6 0.1-1.4 0.2-2.3 0.5-0.9 0.2-1.8 0.6-2.2 1.2-0.4 0.5-0.5 1.1-0.5 1.8 0 0.9 0.3 1.8 0.7 2.4 0.6 0.8 0.9 1.7 1 2.6 0.3-0.1 0.6-0.1 0.9-0.1q0.9 0 1.9 0.3l1.2 0.1c1.1 0 2.2-0.3 2.8-1.2 0.4-0.5 0.6-1.3 0.6-2.1 0-1.1-0.3-2.1-0.3-2.7l-0.1-0.3c0-1.5 1.1-2.4 1.8-2.7 0.8-0.3 1.4-0.4 1.5-0.4h0.2c0.1 0 0.7 0.1 1.5 0.4 0.7 0.3 1.8 1.2 1.8 2.7v0.3c-0.1 0.6-0.3 1.6-0.3 2.7 0 0.8 0.1 1.5 0.5 2.1 0.7 0.9 1.7 1.2 2.8 1.2l1.2-0.1q1-0.3 2-0.3c0.3 0 0.5 0 0.8 0.1 0.2-0.9 0.5-1.8 1-2.6 0.4-0.6 0.8-1.5 0.8-2.4 0-0.7-0.2-1.2-0.6-1.8-0.4-0.6-1.2-1-2.1-1.2-0.9-0.3-1.8-0.4-2.4-0.5-0.8-0.2-1.5-0.8-1.8-1.4-0.4-0.6-0.4-1.2-0.4-1.7 0-0.5 0.1-0.9 0.1-1v-0.2c0.1-0.1 0.3-0.5 0.7-1.1 0.4-0.5 1.2-1.2 2.4-1.2l1.1 0.2c0.5 0.2 1 0.5 1.7 0.8 0.7 0.4 1.5 0.6 2.2 0.6zm-17.6-6l-0.2-0.3zm7.4 0.3l0.2-0.3z"></path><path d="m95.2 215.7z"></path><path d="m111.4 207.2z"></path><path d="m76.7 164.9h0.1z"></path><path d="m77 189.6z"></path><path d="m108.5 224.2z"></path><path d="m144.9 214.6c0.9 0.5 1.5 1.5 1.5 2.6 0 1.6-1.3 2.9-3 2.9-1.1 0-2-0.6-2.5-1.4 0.2 1.8 1.7 3.1 3.6 3.1 2 0 3.6-1.6 3.6-3.6 0-1.9-1.4-3.4-3.2-3.6z"></path></g><path d="m556.3 238.2c1.4 0.3 2.7 0.3 4.1 0.5 0.9 0.1 2.3 0.3 2.8 1.2 0.7 1.3-0.6 2.2-1.7 2.5-1.5 0.3-3.1 0-4.7-0.1q-3.5-0.2-6.9-0.3-4-0.2-8-0.2-4.4 0-8.9 0.1-3.4 0.1-6.8 0.2-2 0.1-4 0.3c-1.3 0.1-2.7 0.3-4 0.1-1-0.2-2.3-1-1.9-2.3 0.3-1.2 1.9-1.4 2.9-1.5 2.6-0.3 5.2-0.4 7.6-1.5 2-0.8 3.7-2.3 4.4-4.5 0.8-2.5 0.7-5.1 0.7-7.6l0.1-65c0-3.1 0.1-5.5-0.1-8.2 0-1.1-0.2-2.1-1.1-2.8-1-0.9-2.5-1-3.9-1.1-3.5-0.2-7.2-0.1-10.8 0q-3.5 0.1-7 0.8c-2.9 0.5-5.8 1.5-7.9 3.7-2.6 2.7-3.1 6.4-3.6 9.9-0.2 1.2-0.5 4-2.3 3.5-0.9-0.2-1-1.2-1.1-2-0.1-1 0-2 0-2.9 0-4.1 0-8.2 0-12.3 0-1.4-0.3-3.3 0.6-4.4 0.8-0.9 2.1-1.1 3.2-1.1 1.6-0.1 3.2 0.1 4.7 0.2 5.4 0.2 10.8 0.5 16.2 0.6q4.5 0.1 9 0.1 5.6 0.1 11.1 0.1 5.7 0 11.4-0.1c8.9 0 17.9-0.3 26.8-0.7 1.6-0.1 3.2-0.3 4.8-0.2 1 0.1 2 0.3 2.6 1 0.4 0.5 0.5 1.1 0.6 1.7 0.2 1.2 0.1 2.5 0 3.8q0 5.9 0 11.9c0 1.1 0.2 2.4-0.1 3.5-0.1 0.2-0.2 0.5-0.4 0.6-0.8 0.7-1.7 0-2.1-0.7-0.7-1.4-0.7-3.2-1-4.8-0.5-2.9-1.5-6-3.7-8.1-2-1.9-4.7-2.8-7.4-3.3-5-0.9-10.3-0.9-15.4-0.9-1.4 0-2.7 0-4.1 0.2-0.9 0.2-1.9 0.4-2.5 1.2-0.6 0.8-0.8 1.9-0.8 2.8-0.2 2.5-0.1 5.1-0.1 7.6 0 0 0 67.5 0.2 69.9 0.2 1.9 0.6 4 1.9 5.5 1.6 1.9 4.2 2.7 6.6 3.1z"></path><path fill-rule="evenodd" d="m398.1 39.8c10.6-10.4 24.2-15.8 39.3-15.8 15.3 0 29.8 6.2 39.8 16.7 8.7 9.3 12.7 20.5 12.8 34.7 0 14.2-5.8 27.7-15.3 36.7-9.6 9-24.1 14.6-37.9 14.6-14.8 0-28.1-5-38-14.1-10.9-10.1-15.8-21.6-15.8-36.9 0-13.6 5.1-25.9 15.1-35.9zm3.4 35.2c0 14.8 3.6 26.8 9.8 35.1 6.3 8.4 15.2 13 25.2 13 9.9 0 18.9-4.3 25.2-12.5 6.3-8.2 10.1-20.1 10.1-35.3 0-15.2-3.5-27.1-9.7-35.3-6.2-8.1-15.2-12.4-25.3-12.4-10 0-19 4.5-25.3 12.7-6.3 8.2-10 20-10 34.7z"></path><path d="m32.6 119.4c-1 0.5-2.1 0.8-3.2 1-1.1 0.2-2.3 0.2-3.4 0.4-0.9 0.1-2.2 0.3-2.8 1.1-0.5 0.8-0.2 1.9 0.7 2.4 1.1 0.7 2.6 0.4 3.9 0.3q1.8-0.1 3.6-0.3c3.2-0.1 7.7-0.3 13.5-0.3 5.9 0 10.4 0.2 13.6 0.3 1.2 0.1 2.4 0.2 3.7 0.3 1.4 0.2 4.5 0.7 4.8-1.4 0.1-0.5-0.1-0.9-0.3-1.2-0.4-0.5-0.9-0.7-1.4-0.9-1.5-0.4-3.1-0.5-4.7-0.7-1.1-0.2-2.1-0.5-3.2-1-1.7-0.8-3.1-2.2-3.8-4.1-0.7-1.9-0.8-4.2-0.8-7.5v-31.6h52.1v31.6c0 3.3-0.1 5.6-0.8 7.5-0.6 1.9-2 3.3-3.8 4.1-0.9 0.5-2 0.8-3.1 1-1.6 0.2-3.2 0.2-4.8 0.7-0.7 0.2-1.4 0.5-1.6 1.3-0.3 0.9 0.3 1.7 1.1 2 1.5 0.6 3.3 0.2 4.9 0.1 5.4-0.4 10.8-0.5 16.2-0.5 5.4 0 10.8 0.1 16.2 0.6 1.5 0.1 4.5 0.6 5.3-1 0.3-0.6 0.3-1.4-0.2-1.8-0.3-0.4-0.8-0.6-1.2-0.7-2.7-0.7-5.5-0.5-8-1.7-1.8-0.8-3.2-2.2-3.8-4.1-0.6-1.9-0.7-4.2-0.7-7.5v-65.6c0-3.2 0.1-5.4 0.8-7.3 1.4-4.3 6.1-4.7 10-5.2 1.1-0.2 3.1-0.2 3.3-1.7 0.1-0.5-0.2-0.9-0.6-1.2-0.4-0.3-0.8-0.4-1.3-0.5-1.4-0.2-2.8 0-4.2 0.1q-2 0.1-4.1 0.2-5.9 0.2-11.8 0.2c-5.8 0-10.3-0.1-13.5-0.3q-2.2-0.1-4.3-0.2c-1.2-0.1-3.3-0.4-3.9 1-0.2 0.5-0.2 1.2 0.3 1.5 0.3 0.3 0.7 0.4 1 0.5 2.7 0.7 5.5 0.5 8.1 1.7 1.6 0.7 3.1 2 3.7 3.9 0.6 1.9 0.8 4.1 0.8 7.3v28.9h-52.1v-28.9c0-3.5 0.3-6 1.2-8 0.8-2 2.6-3.2 4.6-3.7 2-0.5 4.1-0.7 6.2-1.1 0.6-0.1 1.2-0.2 1.6-0.7 0.8-1-0.1-2.1-1.2-2.4-0.8-0.2-1.7-0.1-2.6 0q-2.1 0.1-4.1 0.2c-3.3 0.2-7.8 0.3-13.6 0.3q-7.9 0-15.9-0.4c-1.5-0.1-3.3-0.4-4.8 0-1.4 0.5-1.6 2.1-0.3 2.8 0.8 0.3 1.9 0.4 2.7 0.5 1 0.1 2 0.2 3 0.4 1 0.2 2 0.4 3 0.9 1.7 0.7 3.1 2 3.7 3.9 0.6 1.9 0.8 4.1 0.8 7.3v65.6c0 3.3-0.1 5.6-0.8 7.5-0.6 1.9-2 3.3-3.7 4.1z"></path><path d="m210.3 118.3c-4 1.3-8.9 1.8-15.4 1.8-5.3 0-9.3-0.3-12.3-1.1-3.1-0.8-5.4-2.3-6.8-4.6-0.9-1.5-1.4-3.3-1.6-5.4-0.4-2.7-0.5-5.9-0.5-9.9l0.1-24c4.6 0 9.2 0 13.6 1.3q0.7 0.2 1.5 0.5c3.2 1.3 5.5 3.5 6.9 6.5 0.6 1.3 1.1 2.7 1.4 4.1 0.3 1.1 0.4 2.3 1 3.4 0.6 1.1 1.9 1.3 2.6 0.2 0.7-1.2 0.5-2.7 0.4-4q-0.2-2.1-0.3-4.2-0.5-6.2-0.5-12.4c0-4.3 0.3-8.6 0.6-12.8 0.1-1.3 0.4-2.9-0.1-4.2-0.4-1.1-1.6-1.8-2.7-1-0.9 0.9-1.1 2.4-1.3 3.5-0.1 1-0.3 2.3-0.7 3.6-0.3 1.2-0.8 2.5-1.6 3.8-1.6 2.6-3.8 4.5-6.8 5.7-3 1.1-6.7 1.7-11.7 2l-2.4 0.2c0-1.2-0.2-34.7 0.2-36.9 0.1-0.7 0.2-1.3 0.5-1.9 0.8-1.6 2.5-1.8 4.1-2 1.5-0.1 3.4-0.1 5.9-0.1h1.2c7 0 14.5 0.2 18.8 1.2 4.3 1 7.6 3 9.7 6.4 0.8 1.2 1.2 2.4 1.5 3.5 0.3 1.2 0.5 2.3 0.6 3.2 0.2 0.8 0.3 1.6 0.6 2.4 0.4 0.8 1.3 1.3 2.1 1 0.8-0.2 1.2-0.9 1.4-1.7 0.1-1.2-0.2-2.4-0.3-3.6q-0.3-2.4-0.3-4.8c0-4.2 0.5-6.9 0.5-7.9 0-0.9-0.2-1.6-0.6-2.1-0.6-0.9-1.7-1.2-2.8-1.4-2.9-0.4-5.9-0.2-8.9-0.2-13.6 0-27.5 0.4-38.1 0.4-13.7 0-21.6-0.6-22.9-0.6-0.8 0-2.1 0.1-2.6 0.9-0.5 0.8 0.1 1.8 0.8 2.1 1.7 0.7 3.8 0.6 5.6 0.9 1 0.2 2 0.4 3 0.9 1.6 0.7 3.1 2 3.7 3.9 0.6 1.9 0.8 4.1 0.8 7.3v65.6c0 3.3-0.1 5.6-0.8 7.5-0.6 1.9-2 3.3-3.8 4.1-1.7 0.8-3.7 1.1-5.6 1.3-1.4 0.2-4.3 0.3-4 2.4 0.1 0.8 0.9 1.3 1.7 1.5 1 0.2 2.1 0 3.1 0 4.2-0.3 8.4-0.5 12.7-0.6q2.2 0 4.5 0c33.4 0 51.4 0.7 54.1 0.7 0.9 0 1.9 0 2.8-0.2 1.2-0.1 2-0.8 2.2-2.1 0.1-1.2 0.1-2.5 0.1-3.7q0.1-2 0.2-4.1c0.1-2.7 0.3-5.4 0.4-8.2 0-1.4 0.1-3.1-0.5-4.5-0.3-0.6-0.8-1-1.5-0.9-0.6 0-1.2 0.5-1.5 1.1-0.4 0.8-0.5 1.7-0.7 2.5q-0.3 1.4-0.7 2.7c-0.4 1.2-0.9 2.5-1.8 3.9q-2.9 5.1-8.8 7.1z"></path><path fill-rule="evenodd" d="m374.7 121.6c0.8 0.9 0.6 2.1-0.4 2.7-1.3 0.6-3 0.3-4.4 0.2q-1.8-0.1-3.7-0.2c-6.1-0.3-12.2-0.4-18.3-0.3-9.1 0-20.5 0.4-29.6 0.4-2.4 0-4.7 0.1-6.8 0.1-1.5 0-2.7 0-3.7-0.3-1-0.3-1.8-0.9-2.8-2.1l-31.5-39.5c-0.9-1.1-1.8-2-3-2.6-1.9-0.9-4.3-0.7-6.3-0.7v28.5c0 3.3 0.1 5.6 0.8 7.5 0.3 0.9 0.8 1.8 1.6 2.6 1.9 1.9 4.8 2.3 7.4 2.7 1 0.2 2.1 0.2 3.1 0.6 0.8 0.3 1.5 1.2 1.2 2.1-0.2 0.8-0.9 1.1-1.6 1.2-1.1 0.3-2.3 0.1-3.4 0-1.1 0-2.3-0.1-3.3-0.2-3.2-0.2-7.8-0.4-13.6-0.4-5.9 0-10.4 0.2-13.6 0.4q-2.1 0.1-4.2 0.3c-1 0.1-2 0.2-3-0.2-0.4-0.1-0.7-0.3-0.9-0.6-1-1.3 0.3-2.5 1.5-2.8 2.6-0.7 5.3-0.4 7.8-1.6 1.7-0.9 3.2-2.2 3.8-4.1 0.6-1.9 0.7-4.2 0.7-7.5v-65.6c0-3.2-0.1-5.5-0.8-7.3-0.6-1.9-2-3.2-3.7-4-0.9-0.4-1.9-0.7-3-0.8-1.2-0.2-2.3-0.3-3.5-0.4-0.9-0.1-2-0.3-2.7-1-0.6-0.6-0.5-1.5 0.2-1.9 0.6-0.5 1.5-0.6 2.3-0.6 0.5 0 4.6 0.3 11.8 0.3 10.4 0 19.8-0.8 27.8-0.7 12.3-0.1 21.5 1.9 27.4 5.9 6 4 9 10 9 19.2 0 6.9-2 12.3-5.8 16.5-2 2.2-4.4 3.9-7.1 5.3-4.3 2.2-9.1 3.2-13.8 4.2l31.2 36.5c2.2 2.6 5 5 8.1 6.3 2.2 0.9 4.6 1.1 6.9 1 2.1-0.2 4.3-0.5 6.2-1.4 1.9-0.8 3.4-2.1 4.2-4.1 0.7-1.9 0.9-4.2 0.9-7.4v-65.6c0-3.2-0.2-5.4-0.9-7.3-0.6-1.9-2.1-3.2-3.8-4-0.9-0.4-2-0.7-3.2-0.8-1.7-0.3-3.4-0.3-5-0.5-1-0.1-2.8-0.3-2.7-1.7 0-0.8 1-1.2 1.7-1.4 1.3-0.4 2.8-0.3 4.2-0.2 1.4 0 2.9 0.1 4.3 0.2q6.6 0.3 13.1 0.3c5.8 0 10.3-0.2 13.6-0.3 3.2-0.2 5.2-0.3 5.6-0.3 1 0 2 0 2.9 0.4 0.6 0.2 1.3 0.7 1.2 1.4-0.1 1.7-2.9 1.5-4.1 1.7-1.8 0.2-3.8 0.4-5.6 0.8-1.9 0.5-3.7 1.7-4.6 3.7-0.9 2-1.1 4.4-1.2 8v65.6c0.1 3.3 0.2 5.6 1 7.6 0.9 2.3 2.9 3.5 5.1 4.3 1.7 0.6 3.4 0.8 5.2 1 1 0.1 2.3 0.1 3.3 0.6q0.3 0.1 0.5 0.3zm-85.2-51.2c4.9-3.7 6.9-9.5 6.8-17.3 0-7.9-1.8-14-6.1-18.1-4.3-4.1-10.7-5.8-19.1-5.8-2.8 0-4.3 0.3-5.4 1.1-0.4 0.3-0.9 0.9-1.1 1.6-0.3 0.7-0.4 1.5-0.4 2.7v40.8l3.4 0.1c10-0.1 17.1-1.4 21.9-5.1z"></path><path d="m187.8 144.4c-0.4 0.2-0.7 0.6-0.8 1.1-0.1 0.5 0.1 0.9 0.4 1.3 0.6 0.7 1.9 0.9 2.8 1 1.1 0.3 2.3 0.3 3.4 0.6 1.7 0.4 3.3 1.3 4.4 2.9 1.1 1.6 1.9 3.6 2.9 6.7 0 0 25.2 78.8 25.2 78.9 0.5 1.6 1.1 3.2 1.8 4.8 0.3 0.8 0.8 1.6 1.5 2.2 1.9 1.5 3.9 0.3 5.1-1.4 0.9-1.3 1.7-3.4 2.4-6.1l21.1-69.4c0 0 20.7 70.4 20.7 70.4 0.4 1.4 0.8 2.8 1.4 4.1 0.5 1.1 1.1 2.3 2.2 2.8 1.1 0.5 2.5 0.1 3.4-0.8 1.1-1 1.7-2.6 2.3-4 0.9-2.2 1.5-4.6 2.3-6.9q0.7-2.3 1.4-4.7 1-3.1 2-6.2 1.1-3.7 2.3-7.5 1.3-4 2.5-8.1 1.4-4.3 2.7-8.5 1.3-4.2 2.6-8.5 1.3-3.9 2.5-7.9 1.1-3.5 2.2-7.1 0.9-2.8 1.8-5.7 0.6-2 1.2-4 0.3-1 0.6-1.9 0-0.1 0.1-0.1c1.2-4 2.1-6.9 3.3-9.1 1.2-2.2 2.8-3.8 5-4.6 1-0.4 2.2-0.7 3.3-1 0.8-0.3 1.8-0.5 2.5-1.2 0.5-0.6 0.6-1.7-0.2-2.1-0.6-0.4-1.3-0.4-1.9-0.4-1.1-0.1-2.2 0-3.2 0.1q-2.9 0.3-5.7 0.3-5.2 0-10.3-0.3c-2.2 0-4.4-0.2-6.5-0.3-1.3 0-3.9 0-3.9 1.9 0 0.9 0.7 1.5 1.6 1.7 0.7 0.2 1.6 0.2 2.3 0.3 2.5 0.4 5.1 0.9 6.9 2.7 1.2 1.3 1.7 3 1.7 4.7 0 5.4-1.4 13.6-4.8 24.3l-13.1 42.7-22.1-72q-0.3-1.1-0.7-2.3c-0.3-1.1-0.7-2.5-1.7-3.3-0.6-0.6-1.5-0.8-2.3-0.7-1 0.2-1.6 0.8-2.1 1.6-0.6 0.9-1.2 2.5-1.7 4.4l-22.1 74.1-1.7-5.6-0.4-1.5c-5.3-17.2-9.5-30.9-12.5-41.1-1.7-6-3-10.7-3.9-14.2-0.8-3.6-1.3-5.9-1.3-7.4 0-0.7 0-1.4 0.3-2.1 0.2-0.7 0.7-1.4 1.3-2 1-0.7 2.2-1.2 3.3-1.5q2.1-0.5 4.1-0.8c0.9-0.1 1.8-0.2 2.7-0.4 0.7-0.1 1.5-0.5 1.6-1.3 0-0.8-0.6-1.4-1.2-1.7-0.7-0.3-1.9-0.4-3.2-0.4-5.2 0-11.4 0.8-18.1 0.8-9.9 0-15.9-0.6-17.6-0.6-0.7 0-1.5 0-2.1 0.3z"></path><path fill-rule="evenodd" d="m333.8 238.9c1.1 0.3 2.8 0.5 3.1 1.8q0.1 0.4 0 0.7c-0.2 0.6-0.8 0.9-1.3 1.1-1.1 0.4-2.2 0.2-3.3 0.1-1 0-1.9-0.2-2.9-0.3q-1.4-0.1-2.8-0.2c-1.9-0.1-3.7-0.2-5.6-0.3q-3.1 0-6.2 0.2c-2 0.1-4 0.3-6 0.4-0.9 0-1.9 0.1-2.8-0.1-0.5-0.1-1.1-0.4-1.5-0.9-0.3-0.4-0.4-1.1-0.1-1.6 0.3-0.6 1-0.8 1.6-1 1.9-0.5 3.8-0.8 5.6-1.5 3-1.1 5.2-3.5 6.8-6.2 1.8-2.9 3.1-6 4.5-9.2l32.5-77.5c0.3-0.9 0.7-1.6 1.2-2.1 0.4-0.6 0.9-0.8 1.6-0.8 0.8 0 1.2 0.2 1.7 0.8 0.5 0.5 0.9 1.4 1.4 2.4l32.2 81.2c1.2 3.1 2.4 5.6 3.8 7.4 1.3 1.9 2.9 3.3 4.8 4.1 1 0.4 2 0.7 2.9 0.9 1.4 0.3 2.8 0.3 4.1 0.8 0.7 0.3 1.6 1 1.3 1.9-0.3 0.9-1.3 1.3-2.1 1.4-1.8 0.2-3.7 0-5.6-0.1-0.5 0-1.1-0.1-1.7-0.1-4-0.2-8.2-0.4-12.2-0.4-4.1 0.1-8.2 0.5-12.3 0.7q-1.8 0.1-3.7 0.2c-1.2 0-2.5 0.1-3.7-0.2-0.9-0.1-2.3-0.7-2-1.9 0.3-1.6 3.2-1.7 4.4-1.9q0.2-0.1 0.4-0.1c2.6-0.4 6.4-0.9 7.1-3.9 0.5-1.7 0-3.5-0.3-5.2q-0.7-2.6-1.6-5c0 0-6.7-17.6-6.7-17.6h-36.5l-6.3 15.8q-0.6 1.6-1.1 3.2-0.6 2.2-0.8 4.5c-0.1 1.6 0.1 3.3 1 4.7 0.9 1.3 2.2 2.2 3.7 2.8 1.1 0.5 2.2 0.8 3.4 1zm2-36.8h33l-16-41.1-1.6 4z"></path><path d="m556.3 120.4c1.3 0.2 2.7 0.2 4 0.4 0.9 0.2 2.4 0.3 2.9 1.3 0.6 1.2-0.6 2.2-1.8 2.4-1.5 0.4-3.1 0.1-4.6 0q-3.5-0.3-7-0.4-4-0.1-8-0.1-4.4-0.1-8.8 0-3.4 0.1-6.8 0.3-2 0.1-4 0.2c-1.3 0.1-2.7 0.3-4 0.1-1.1-0.2-2.3-1-2-2.2 0.3-1.2 1.9-1.4 2.9-1.6 2.6-0.3 5.2-0.4 7.6-1.4 2.1-0.9 3.7-2.4 4.5-4.6 0.8-2.4 0.7-5 0.7-7.6l0.1-65c0-3 0-5.5-0.1-8.2-0.1-1-0.3-2.1-1.1-2.8-1.1-0.9-2.5-1-3.9-1.1-3.6-0.2-7.3-0.1-10.9 0.1q-3.5 0.1-7 0.7c-2.9 0.6-5.8 1.5-7.9 3.7-2.6 2.7-3 6.4-3.6 10-0.2 1.1-0.4 4-2.3 3.5-0.9-0.3-1-1.3-1-2.1-0.1-0.9-0.1-1.9-0.1-2.9 0.1-4.1 0-8.2 0-12.3 0-1.4-0.2-3.2 0.7-4.4 0.7-0.9 2.1-1 3.2-1.1 1.5-0.1 3.1 0.1 4.7 0.2 5.4 0.3 10.8 0.5 16.2 0.6q4.5 0.1 9 0.2 5.5 0 11.1 0 5.6 0 11.3 0c8.9-0.1 18-0.3 26.9-0.8 1.6-0.1 3.2-0.3 4.8-0.2 0.9 0.1 1.9 0.3 2.6 1.1 0.3 0.4 0.5 1 0.6 1.6 0.2 1.3 0 2.6 0 3.8q0 6 0 11.9c0 1.1 0.2 2.4-0.2 3.5-0.1 0.3-0.2 0.5-0.4 0.7-0.7 0.6-1.7 0-2-0.7-0.8-1.4-0.7-3.3-1-4.8-0.6-3-1.5-6-3.8-8.2-2-1.9-4.7-2.8-7.3-3.3-5.1-0.9-10.3-0.9-15.4-0.8-1.4 0-2.8 0-4.1 0.2-0.9 0.1-1.9 0.4-2.5 1.1-0.6 0.8-0.8 1.9-0.9 2.9-0.1 2.5-0.1 5-0.1 7.5 0 0 0 67.5 0.2 69.9 0.2 2 0.6 4 1.9 5.5 1.7 1.9 4.3 2.8 6.7 3.2z"></path><path d="m457.6 238.2c1.4 0.3 2.7 0.3 4.1 0.5 0.9 0.1 2.3 0.3 2.8 1.2 0.7 1.3-0.6 2.2-1.7 2.5-1.5 0.3-3.1 0-4.7-0.1q-3.5-0.2-6.9-0.3-4-0.2-8-0.2-4.4 0-8.9 0.1-3.4 0.1-6.8 0.2-2 0.1-4 0.3c-1.3 0.1-2.7 0.3-4 0.1-1-0.2-2.3-1-1.9-2.3 0.3-1.2 1.9-1.4 2.9-1.5 2.6-0.3 5.2-0.4 7.6-1.5 2-0.8 3.7-2.3 4.4-4.5 0.8-2.5 0.7-5.1 0.7-7.6l0.1-65c0-3.1 0.1-5.5-0.1-8.2 0-1.1-0.2-2.1-1-2.8-1.1-0.9-2.6-1-4-1.1-3.5-0.2-7.2-0.1-10.8 0q-3.5 0.1-7 0.8c-2.9 0.5-5.8 1.5-7.9 3.7-2.6 2.7-3.1 6.4-3.6 9.9-0.2 1.2-0.5 4-2.3 3.5-0.9-0.2-1-1.2-1.1-2-0.1-1 0-2 0-2.9 0-4.1 0-8.2 0-12.3 0-1.4-0.3-3.3 0.6-4.4 0.8-0.9 2.1-1.1 3.2-1.1 1.6-0.1 3.2 0.1 4.7 0.2 5.5 0.2 10.8 0.5 16.2 0.6q4.5 0.1 9 0.1 5.6 0.1 11.1 0.1 5.7 0 11.4-0.1 4.6 0 9.2-0.1 3.7-0.1 7.3-0.2 2.8-0.1 5.6-0.2 2.4-0.1 4.7-0.2c1.6-0.1 3.2-0.3 4.8-0.2 1 0.1 2 0.3 2.6 1 0.4 0.5 0.6 1.1 0.6 1.7 0.2 1.2 0.1 2.5 0 3.8q0.1 2 0 3.9 0 4 0 8c0 1.1 0.2 2.4-0.1 3.5-0.1 0.2-0.2 0.5-0.4 0.6-0.8 0.7-1.7 0-2.1-0.7-0.7-1.4-0.7-3.2-1-4.8-0.5-2.9-1.5-6-3.7-8.1-2-1.9-4.7-2.8-7.4-3.3-2.4-0.5-4.9-0.7-7.3-0.8-2.8-0.1-5.6-0.1-8.4-0.1q0.4 0 0.8 0c-1.6 0-3.1 0-4.6 0.2-0.9 0.2-1.9 0.4-2.5 1.2-0.6 0.8-0.8 1.9-0.8 2.8-0.2 2.5-0.1 5.1-0.1 7.6v62.6c0 2.4 0 4.9 0.2 7.3 0.2 1.9 0.6 4 1.9 5.5 1.6 1.9 4.2 2.7 6.6 3.1z"></path><g><path d="m190.7 263.8c-1.5-0.8-3.9-0.3-3.9-1.2 0-0.3 0.4-0.6 1.1-0.6 0.7 0 3.3 0.3 7.9 0.3 4.8 0 7.6-0.3 8-0.3q1.1 0 1.1 0.6c0 0.7-1.4 0.4-3.4 1-2 0.5-2.5 2.1-2.5 5v21.3c0 7.9 3.4 11.6 11.1 11.6 9 0 13.1-4.4 13.1-13.9v-19c0-2.6-0.3-4-2-4.8-1.6-0.8-4-0.3-4-1.2 0-0.3 0.5-0.6 1.2-0.6 1.3 0 3.3 0.3 5.9 0.3 2.5 0 4.3-0.3 5.4-0.3 0.6 0 1.1 0.2 1.1 0.6 0 0.7-1.5 0.4-3.5 1-2 0.5-2.4 2.1-2.4 5v17.4c0 12.5-4.4 17.7-16.7 17.7-10.4 0-15.5-4.3-15.5-13v-22.1c0-2.6-0.3-4-2-4.8z"></path><path d="m247.3 300.8c1.6 0.9 3.2 0.3 3.2 1.3q0 0.7-1.3 0.7c-0.6 0-2.5-0.3-5.6-0.3-1.9 0-3.6 0.2-5 0.2-1 0-1.5-0.3-1.5-0.6 0-1 2.2-0.5 3.7-1.4 1.9-1.1 2.1-2.8 2.1-5.9v-28.3c-1.1-1.7-2.2-2.5-3.8-3-1.3-0.3-2.6-0.1-2.6-0.9q0-0.7 1.6-0.6c0.9 0 2.3 0.2 4.4 0.2 1.2 0 2.4-0.1 3.5-0.1 0.8 0 1.5 0.3 2.1 1l24.8 31.1v-24.9c0-4.2-1.3-6.2-5.1-6.2-0.3 0-0.6-0.3-0.6-0.6 0-0.4 0.3-0.6 1-0.6 1.4 0 3.6 0.3 6.4 0.3 2.3 0 3.9-0.2 4.9-0.2q1 0 1 0.6c0 0.8-2 0.4-3.6 1.3-1.9 1-2.1 2.5-2.1 5.5v32.5c0 1.1-0.1 1.8-1 1.8-0.8 0-1.3-0.6-2-1.5l-27.1-33.7v26.4c0 3.1 0.3 4.8 2.6 5.9z"></path><path d="m302 300.8c2 0.9 4.3 0.2 4.3 1.3 0 0.4-0.3 0.7-1.1 0.7-0.6 0-3.4-0.3-8.5-0.3-5.1 0-7.9 0.3-8.4 0.3-0.8 0-1.3-0.3-1.3-0.7 0-1.1 2.4-0.4 4.4-1.3 1.9-0.9 2.2-2.3 2.2-4.9v-27.3c0-2.6-0.3-4-2-4.8-1.6-0.8-4.6-0.3-4.6-1.2 0-0.3 1.1-0.6 1.8-0.6 0.7 0 3.3 0.3 7.9 0.3 4.8 0 7.5-0.3 8-0.3 0.7 0 1.6 0.2 1.6 0.6 0 0.7-2 0.4-4 1-2 0.5-2.5 2.1-2.5 5v27.3c0 2.7 0.4 4.1 2.2 4.9z"></path><path d="m341.3 281.5c3.5-8.7 5.1-13.8 5.1-15.4 0-1.4-0.6-2.3-1.9-2.6-2.1-0.5-3.2-0.3-3.2-0.9 0-0.3 0.4-0.6 1.1-0.6 0.8 0 2.8 0.3 5.8 0.3 3 0 4.8-0.3 5.6-0.3 0.7 0 1.1 0.3 1.1 0.6 0 0.8-1.4 0.5-2.6 0.9-2 0.8-3.3 3.2-5 7.4l-10.2 25.6c-1.9 4.7-3.1 7.1-4.1 7.1-0.5 0-1.2-0.8-1.8-2.4l-11.5-30.3c-1.6-4.2-2.3-6.6-4.3-7.2-2.1-0.5-3.4-0.4-3.4-1.1q0-0.7 1.1-0.6c0.4 0 2.7 0.3 7.1 0.3 5.2 0 8-0.3 8.5-0.3q0.9 0 0.9 0.6c0 0.6-0.8 0.6-2.1 0.8-1.9 0.2-2.8 0.9-2.8 2.3 0 1.1 0.7 3.3 2 6.8l8.6 23.7z"></path><path d="m380.9 301.1c5.4 0 8.5-0.8 10.2-3.8 1.4-2.3 0.9-4.2 1.9-4.2 0.6 0 0.7 0.6 0.7 1.9 0 1.9-0.3 4-0.3 6.1 0 1.5 0 1.7-2 1.7-1.1 0-8.6-0.3-22.5-0.3-4.8 0-7.4 0.3-7.9 0.3q-1.1 0-1.1-0.7c0-1.1 2.2-0.5 3.9-1.3 1.8-0.9 2-2.3 2-4.9v-27.3c0-2.6-0.3-4-2-4.8-1.5-0.8-3.9-0.3-3.9-1.2 0-0.3 0.4-0.6 1.1-0.6 0.6 0 3.8 0.3 9.5 0.3 4.4 0 9.3-0.2 15-0.2 0.5 0 1 0 1.3 0 2.7 0 3.7 0 3.7 1.4 0 0.6-0.2 1.6-0.2 3.3 0 1.5 0.2 2.6 0.2 3.2 0 0.6-0.2 0.9-0.6 0.9-1.2 0-0.5-2.1-1.7-4.2-1.9-2.9-5.4-3.2-11.1-3.2-0.2 0-0.3 0-0.5 0-4.2 0-4.6 0.1-4.6 3.3v14c4.8-0.3 7.4-0.8 8.9-3.4 1.3-2.1 0.8-4.6 1.8-4.6q0.7 0 0.7 1c0 1.3-0.3 3.4-0.3 6.5 0 4.2 0.4 6.7 0.4 7.7 0 0.8-0.3 1.1-0.7 1.1-0.7 0-0.5-1.5-1.4-3.4-1.3-2.8-3.8-3.5-8.3-3.5q-0.5 0-1.1 0v10c0 7 0.6 8.9 8.9 8.9z"></path><path fill-rule="evenodd" d="m413.5 300.8c1.7 0.8 3.9 0.2 3.9 1.3q0 0.7-1 0.7c-0.5 0-3.1-0.3-8-0.3-4.8 0-7.4 0.3-7.9 0.3q-1.1 0-1.1-0.7c0-1.1 2.2-0.5 3.9-1.3 1.8-0.9 2-2.3 2-4.9v-27.3c0-2.6-0.3-4-2-4.8-1.6-0.8-3.9-0.3-3.9-1.2 0-0.3 0.3-0.6 1.1-0.6 0.3 0 1.9 0.1 4.9 0.1 4.3 0 8.2-0.3 11.6-0.3 10.2 0 15 3.1 15 10.4 0 6-3.8 9.7-11.3 10.7l13.2 15.4c2.6 3 6.1 3.1 6.1 4.1 0 0.2-0.4 0.5-1 0.5-0.3 0-1.9-0.2-4.8-0.2-1 0-2 0-2.9 0-1.2 0-1.8 0-2.6-1l-13.1-16.4c-0.8-1.1-1.5-1.4-2.9-1.4-0.9 0-1.1 0.3-1.1 1.3v10.7c0 2.6 0.1 4 1.9 4.9zm-0.4-18.3c8.4 0 12.1-2.5 12.1-9.4 0-6.9-3.4-10.1-10.7-10.1-2.2 0-2.9 0.5-2.9 2.4v15.4c0 1.4 0.1 1.7 1.5 1.7z"></path><path d="m443.6 290.4c1.1 0 0.8 1.8 1.7 4.1 1.8 5 5.6 7.7 10.4 7.7 5.5 0 8.9-3.1 8.9-8.2 0-2-0.6-3.7-1.6-5-2.2-2.7-5.9-4-10.7-6-5.3-2.2-8.3-6.2-8.3-11.1 0-6.3 5-10.9 12-10.9 5.3 0 7.8 2.7 8.9 2.7 1.1 0 0.9-2.2 1.9-2.2 0.4 0 0.7 0.4 0.7 1.3 0 0.8-0.1 2.1-0.1 4 0 1.2 0.1 2.5 0.1 3.7 0 1.2 0 1.7-0.6 1.7-1.1 0-0.9-1.4-1.9-3.8-1.8-3.8-4.8-5.9-8.7-5.9-4.8 0-7.7 2.9-7.7 6.9 0 4.5 3.7 6 9.3 8.4 8.1 3.6 12.3 7 12.3 13.9 0 6.9-6.1 12.1-14.5 12.1-6.3 0-9.4-3.3-10.5-3.3-0.8 0-0.9 1.9-1.7 1.9-0.5 0-0.6-0.3-0.6-0.9 0-0.5 0.3-2.1 0.3-4.5 0-2.2-0.2-4-0.2-5.4 0-0.9 0-1.2 0.6-1.2z"></path><path d="m491.7 300.8c2 0.9 4.3 0.2 4.3 1.3 0 0.4-0.4 0.7-1.2 0.7-0.5 0-3.4-0.3-8.5-0.3-5 0-7.8 0.3-8.4 0.3-0.8 0-1.2-0.3-1.2-0.7 0-1.1 2.4-0.4 4.4-1.3 1.8-0.9 2.2-2.3 2.2-4.9v-27.3c0-2.6-0.4-4-2-4.8-1.6-0.8-4.6-0.3-4.6-1.2 0-0.3 1-0.6 1.8-0.6 0.6 0 3.2 0.3 7.8 0.3 4.8 0 7.6-0.3 8.1-0.3 0.6 0 1.6 0.2 1.6 0.6 0 0.7-2 0.4-4 1-2 0.5-2.5 2.1-2.5 5v27.3c0 2.7 0.4 4.1 2.2 4.9z"></path><path d="m527.1 300.8c2 0.9 4.4 0.2 4.4 1.3 0 0.4-0.5 0.7-1.2 0.7-0.5 0-3.3-0.3-8.5-0.3-5.3 0-8.1 0.3-8.6 0.3-0.8 0-1.1-0.3-1.1-0.7 0-1.1 2.3-0.4 4.3-1.3 1.9-0.8 2.2-2.2 2.2-4.9v-30.6c0-1.7-1-1.9-3.4-1.9-0.7 0-1.6 0-2.5 0-5.2 0-8.4 0.3-9.9 2.4-1.5 2.2-0.9 5.1-1.8 5.1-0.5 0-0.5-0.3-0.5-1v-6.9c0-1 0.4-1.3 1.7-1.3 1.1 0 7.6 0.4 19.6 0.4 12 0 18.5-0.4 19.5-0.4 1.3 0 1.7 0.3 1.7 1.3v6.9c0 0.7 0 1-0.5 1-0.9 0-0.4-2.9-1.8-5.1-1.6-2.4-5.2-2.4-11.3-2.4-0.4 0-0.7 0-1 0-2.6 0-3.5 0.1-3.5 1.9v30.6c0 2.7 0.3 4.1 2.2 4.9z"></path><path d="m570.3 300.8c1.7 0.8 4 0.2 4 1.3q0 0.7-1.1 0.7c-0.5 0-3.1-0.3-7.9-0.3-4.9 0-7.5 0.3-8 0.3-0.7 0-1.1-0.3-1.1-0.7 0-1.1 2.3-0.5 4-1.3 1.7-0.9 1.9-2.3 1.9-4.9v-9.3l-10.5-18.9c-1.3-2.3-1.9-3.8-3.8-4.1-1.3-0.2-2.3-0.2-2.3-1 0-0.5 0.5-0.6 1.4-0.6 0.6 0 2.5 0.1 5.6 0.1 4.2 0 7.1-0.2 8.6-0.2 1.1 0 1.5 0.1 1.5 0.7 0 0.8-1 0.4-2.1 0.6-1.7 0.3-2.6 1.1-2.6 2.3 0 0.6 0.4 2 1.3 3.9l8.2 15.7c6.2-10.3 10.2-16.2 10.2-19.1 0-1.4-0.6-2.2-1.7-2.4-1.6-0.4-2.5-0.3-2.5-1 0-0.3 0.3-0.6 1.2-0.6 0.8 0 2.7 0.3 5.5 0.3 3 0 4.7-0.3 5-0.3 0.5 0 0.8 0.2 0.8 0.4 0 1.1-2.5 0.2-4.8 3.1-1.6 2-5.2 9.3-12.7 20.7v9.7c0 2.6 0.2 4 1.9 4.9z"></path></g></g><path d="m642.2 302.9h-6v-278.9h6z"></path></g></svg>